<?xml version="1.0" encoding="UTF-8"?>
<svg id="Layer_2" data-name="Layer 2" xmlns="http://www.w3.org/2000/svg" xmlns:xlink="http://www.w3.org/1999/xlink" viewBox="0 0 750 151.39">
  <defs>
    <style>
      .cls-1 {
        fill: url(#Degradado_sin_nombre_33-12);
      }

      .cls-2 {
        fill: url(#Degradado_sin_nombre_33-21);
      }

      .cls-3 {
        fill: url(#Degradado_sin_nombre_15-2);
      }

      .cls-4 {
        fill: url(#Degradado_sin_nombre_33-24);
      }

      .cls-5 {
        fill: url(#Degradado_sin_nombre_33-30);
      }

      .cls-6 {
        fill: url(#Degradado_sin_nombre_33-29);
      }

      .cls-7 {
        fill: url(#Degradado_sin_nombre_33-5);
      }

      .cls-8 {
        fill: url(#Degradado_sin_nombre_33-18);
      }

      .cls-9 {
        fill: url(#Degradado_sin_nombre_33-20);
      }

      .cls-10 {
        fill: url(#Degradado_sin_nombre_33-27);
      }

      .cls-11 {
        fill: url(#Degradado_sin_nombre_15);
      }

      .cls-12 {
        fill: url(#Degradado_sin_nombre_33-14);
      }

      .cls-13 {
        fill: url(#Degradado_sin_nombre_33);
      }

      .cls-14 {
        fill: url(#Degradado_sin_nombre_33-15);
      }

      .cls-15 {
        fill: url(#Degradado_sin_nombre_33-3);
      }

      .cls-16 {
        fill: url(#Degradado_sin_nombre_33-10);
      }

      .cls-17 {
        fill: url(#Degradado_sin_nombre_33-9);
      }

      .cls-18 {
        fill: url(#Degradado_sin_nombre_19);
      }

      .cls-19 {
        fill: url(#Degradado_sin_nombre_33-8);
      }

      .cls-20 {
        fill: url(#Degradado_sin_nombre_33-17);
      }

      .cls-21 {
        fill: url(#Degradado_sin_nombre_33-4);
      }

      .cls-22 {
        fill: url(#Degradado_sin_nombre_33-22);
      }

      .cls-23 {
        fill: url(#Degradado_sin_nombre_33-26);
      }

      .cls-24 {
        clip-path: url(#clippath);
      }

      .cls-25 {
        fill: url(#Degradado_sin_nombre_33-16);
      }

      .cls-26 {
        fill: url(#Degradado_sin_nombre_33-2);
      }

      .cls-27 {
        fill: none;
      }

      .cls-28 {
        fill: url(#Degradado_sin_nombre_33-11);
      }

      .cls-29 {
        fill: url(#Degradado_sin_nombre_33-33);
      }

      .cls-30 {
        fill: url(#Degradado_sin_nombre_33-32);
      }

      .cls-31 {
        fill: url(#Degradado_sin_nombre_19-2);
      }

      .cls-32 {
        fill: url(#Degradado_sin_nombre_33-6);
      }

      .cls-33 {
        fill: url(#Degradado_sin_nombre_33-19);
      }

      .cls-34 {
        fill: url(#Degradado_sin_nombre_33-13);
      }

      .cls-35 {
        fill: url(#Degradado_sin_nombre_33-23);
      }

      .cls-36 {
        fill: url(#Degradado_sin_nombre_33-28);
      }

      .cls-37 {
        fill: url(#Degradado_sin_nombre_33-31);
      }

      .cls-38 {
        fill: url(#Degradado_sin_nombre_33-7);
      }

      .cls-39 {
        fill: url(#Degradado_sin_nombre_33-25);
      }
    </style>
    <clipPath id="clippath">
      <rect class="cls-27" width="750" height="151.39"/>
    </clipPath>
    <linearGradient id="Degradado_sin_nombre_33" data-name="Degradado sin nombre 33" x1="289.23" y1="125.44" x2="289.23" y2="92.67" gradientUnits="userSpaceOnUse">
      <stop offset="0" stop-color="#1c7eb6"/>
      <stop offset="1" stop-color="#44408d"/>
    </linearGradient>
    <linearGradient id="Degradado_sin_nombre_33-2" data-name="Degradado sin nombre 33" x1="173.19" y1="104.7" x2="173.19" y2="59.99" xlink:href="#Degradado_sin_nombre_33"/>
    <linearGradient id="Degradado_sin_nombre_33-3" data-name="Degradado sin nombre 33" x1="371.13" x2="371.13" y2="89.64" xlink:href="#Degradado_sin_nombre_33"/>
    <linearGradient id="Degradado_sin_nombre_33-4" data-name="Degradado sin nombre 33" x1="260.05" x2="260.05" y2="87.7" xlink:href="#Degradado_sin_nombre_33"/>
    <linearGradient id="Degradado_sin_nombre_33-5" data-name="Degradado sin nombre 33" x1="386.07" x2="386.07" y2="93.17" xlink:href="#Degradado_sin_nombre_33"/>
    <linearGradient id="Degradado_sin_nombre_33-6" data-name="Degradado sin nombre 33" x1="320.19" x2="320.19" y2="96.93" xlink:href="#Degradado_sin_nombre_33"/>
    <linearGradient id="Degradado_sin_nombre_33-7" data-name="Degradado sin nombre 33" x1="163.37" x2="163.37" y2="41.54" xlink:href="#Degradado_sin_nombre_33"/>
    <linearGradient id="Degradado_sin_nombre_33-8" data-name="Degradado sin nombre 33" x1="142.15" x2="142.15" y2="73.57" xlink:href="#Degradado_sin_nombre_33"/>
    <linearGradient id="Degradado_sin_nombre_33-9" data-name="Degradado sin nombre 33" x1="119.69" x2="119.69" y2="82.49" xlink:href="#Degradado_sin_nombre_33"/>
    <linearGradient id="Degradado_sin_nombre_33-10" data-name="Degradado sin nombre 33" x1="348.2" x2="348.2" y2="83.95" xlink:href="#Degradado_sin_nombre_33"/>
    <linearGradient id="Degradado_sin_nombre_33-11" data-name="Degradado sin nombre 33" x1="413.57" x2="413.57" y2="79.89" xlink:href="#Degradado_sin_nombre_33"/>
    <linearGradient id="Degradado_sin_nombre_33-12" data-name="Degradado sin nombre 33" x1="439.38" x2="439.38" y2="87.7" xlink:href="#Degradado_sin_nombre_33"/>
    <linearGradient id="Degradado_sin_nombre_33-13" data-name="Degradado sin nombre 33" x1="250.02" x2="250.02" y2="84.1" xlink:href="#Degradado_sin_nombre_33"/>
    <linearGradient id="Degradado_sin_nombre_33-14" data-name="Degradado sin nombre 33" x1="224.65" x2="224.65" y2="68.47" xlink:href="#Degradado_sin_nombre_33"/>
    <linearGradient id="Degradado_sin_nombre_33-15" data-name="Degradado sin nombre 33" x1="203.43" x2="203.43" y2="73.69" xlink:href="#Degradado_sin_nombre_33"/>
    <linearGradient id="Degradado_sin_nombre_33-16" data-name="Degradado sin nombre 33" x1="188.23" x2="188.23" y2="65.03" xlink:href="#Degradado_sin_nombre_33"/>
    <linearGradient id="Degradado_sin_nombre_33-17" data-name="Degradado sin nombre 33" x1="99.22" y1="151.39" x2="99.22" y2="104.65" gradientTransform="translate(506.56) rotate(-180) scale(1 -1)" xlink:href="#Degradado_sin_nombre_33"/>
    <linearGradient id="Degradado_sin_nombre_33-18" data-name="Degradado sin nombre 33" x1="289.26" y1="124.06" x2="289.26" y2="91.97" gradientTransform="translate(506.56) rotate(-180) scale(1 -1)" xlink:href="#Degradado_sin_nombre_33"/>
    <linearGradient id="Degradado_sin_nombre_33-19" data-name="Degradado sin nombre 33" x1="157.04" y1="151.39" x2="157.04" y2="102.47" gradientTransform="translate(506.56) rotate(-180) scale(1 -1)" xlink:href="#Degradado_sin_nombre_33"/>
    <linearGradient id="Degradado_sin_nombre_33-20" data-name="Degradado sin nombre 33" x1="70.04" y1="151.39" x2="70.04" y2="101.08" gradientTransform="translate(506.56) rotate(-180) scale(1 -1)" xlink:href="#Degradado_sin_nombre_33"/>
    <linearGradient id="Degradado_sin_nombre_33-21" data-name="Degradado sin nombre 33" x1="171.98" y1="151.39" x2="171.98" y2="105" gradientTransform="translate(506.56) rotate(-180) scale(1 -1)" xlink:href="#Degradado_sin_nombre_33"/>
    <linearGradient id="Degradado_sin_nombre_33-22" data-name="Degradado sin nombre 33" x1="118.14" y1="151.39" x2="118.14" y2="107.7" gradientTransform="translate(506.56) rotate(-180) scale(1 -1)" xlink:href="#Degradado_sin_nombre_33"/>
    <linearGradient id="Degradado_sin_nombre_33-23" data-name="Degradado sin nombre 33" x1="279.44" y1="151.39" x2="279.44" y2="95.02" gradientTransform="translate(506.56) rotate(-180) scale(1 -1)" xlink:href="#Degradado_sin_nombre_33"/>
    <linearGradient id="Degradado_sin_nombre_33-24" data-name="Degradado sin nombre 33" x1="258.22" y1="151.39" x2="258.22" y2="101.71" gradientTransform="translate(506.56) rotate(-180) scale(1 -1)" xlink:href="#Degradado_sin_nombre_33"/>
    <linearGradient id="Degradado_sin_nombre_33-25" data-name="Degradado sin nombre 33" x1="235.76" y1="151.39" x2="235.76" y2="108.12" gradientTransform="translate(506.56) rotate(-180) scale(1 -1)" xlink:href="#Degradado_sin_nombre_33"/>
    <linearGradient id="Degradado_sin_nombre_33-26" data-name="Degradado sin nombre 33" x1="134.11" y1="151.39" x2="134.11" y2="98.39" gradientTransform="translate(506.56) rotate(-180) scale(1 -1)" xlink:href="#Degradado_sin_nombre_33"/>
    <linearGradient id="Degradado_sin_nombre_33-27" data-name="Degradado sin nombre 33" x1="199.48" y1="151.39" x2="199.48" y2="97.41" gradientTransform="translate(506.56) rotate(-180) scale(1 -1)" xlink:href="#Degradado_sin_nombre_33"/>
    <linearGradient id="Degradado_sin_nombre_33-28" data-name="Degradado sin nombre 33" x1="183.73" y1="151.39" x2="183.73" y2="106.97" gradientTransform="translate(506.56) rotate(-180) scale(1 -1)" xlink:href="#Degradado_sin_nombre_33"/>
    <linearGradient id="Degradado_sin_nombre_33-29" data-name="Degradado sin nombre 33" x1="225.29" y1="151.39" x2="225.29" y2="107.46" gradientTransform="translate(506.56) rotate(-180) scale(1 -1)" xlink:href="#Degradado_sin_nombre_33"/>
    <linearGradient id="Degradado_sin_nombre_33-30" data-name="Degradado sin nombre 33" x1="354.05" y1="151.39" x2="354.05" y2="93.32" gradientTransform="translate(506.56) rotate(-180) scale(1 -1)" xlink:href="#Degradado_sin_nombre_33"/>
    <linearGradient id="Degradado_sin_nombre_33-31" data-name="Degradado sin nombre 33" x1="340.72" y1="151.39" x2="340.72" y2="98.05" gradientTransform="translate(506.56) rotate(-180) scale(1 -1)" xlink:href="#Degradado_sin_nombre_33"/>
    <linearGradient id="Degradado_sin_nombre_33-32" data-name="Degradado sin nombre 33" x1="319.5" y1="151.39" x2="319.5" y2="101.8" gradientTransform="translate(506.56) rotate(-180) scale(1 -1)" xlink:href="#Degradado_sin_nombre_33"/>
    <linearGradient id="Degradado_sin_nombre_33-33" data-name="Degradado sin nombre 33" x1="304.29" y1="151.39" x2="304.29" y2="95.59" gradientTransform="translate(506.56) rotate(-180) scale(1 -1)" xlink:href="#Degradado_sin_nombre_33"/>
    <linearGradient id="Degradado_sin_nombre_15" data-name="Degradado sin nombre 15" x1="164.32" y1="231.73" x2="50.28" y2="120.47" gradientTransform="translate(129.5 -128.04) rotate(45.71)" gradientUnits="userSpaceOnUse">
      <stop offset="0" stop-color="#84bcea"/>
      <stop offset="1" stop-color="#1c92da"/>
    </linearGradient>
    <linearGradient id="Degradado_sin_nombre_19" data-name="Degradado sin nombre 19" x1="291.45" y1="137.42" x2="291.45" y2="42.77" gradientTransform="translate(378.12 75.21) rotate(-171.67) scale(1 -1)" gradientUnits="userSpaceOnUse">
      <stop offset=".34" stop-color="#fff"/>
      <stop offset="1" stop-color="#74b8ed"/>
    </linearGradient>
    <linearGradient id="Degradado_sin_nombre_15-2" data-name="Degradado sin nombre 15" x1="524.47" y1="184.93" x2="524.47" y2="18.87" gradientTransform="translate(-5.98 75.21) rotate(-8.33)" xlink:href="#Degradado_sin_nombre_15"/>
    <linearGradient id="Degradado_sin_nombre_19-2" data-name="Degradado sin nombre 19" x1="479.14" y1="181.98" x2="533.36" y2="120.05" gradientTransform="translate(13.7 341.41) rotate(-41.2)" xlink:href="#Degradado_sin_nombre_19"/>
  </defs>
  <g id="OBJECTS">
    <g id="Vegetation_Back" data-name="Vegetation Back">
      <g class="cls-24">
        <g id="Vegetation_back" data-name="Vegetation back">
          <g>
            <g>
              <polygon class="cls-13" points="289.23 92.67 268.01 125.44 310.45 125.44 289.23 92.67"/>
              <polygon class="cls-26" points="173.19 59.99 151.97 104.7 194.41 104.7 173.19 59.99"/>
              <polygon class="cls-15" points="371.13 89.64 349.91 125.44 392.35 125.44 371.13 89.64"/>
              <polygon class="cls-21" points="268.9 87.7 238.83 125.44 281.27 125.44 268.9 87.7"/>
              <polygon class="cls-7" points="382.28 93.17 364.85 125.44 407.29 125.44 382.28 93.17"/>
              <polygon class="cls-32" points="320.19 96.93 298.97 125.44 341.41 125.44 320.19 96.93"/>
              <polygon class="cls-38" points="163.37 41.54 142.15 125.44 184.59 125.44 163.37 41.54"/>
              <polygon class="cls-19" points="142.15 73.57 120.93 125.44 163.37 125.44 142.15 73.57"/>
              <polygon class="cls-17" points="119.69 82.49 98.47 125.44 140.91 125.44 119.69 82.49"/>
              <polygon class="cls-16" points="348.2 83.95 326.98 125.44 369.42 125.44 348.2 83.95"/>
              <polygon class="cls-28" points="417.36 79.89 392.35 125.44 434.79 125.44 417.36 79.89"/>
              <polygon class="cls-1" points="439.38 87.7 418.17 125.44 460.6 125.44 439.38 87.7"/>
              <polygon class="cls-34" points="250.02 84.1 228.81 125.44 271.24 125.44 250.02 84.1"/>
              <polygon class="cls-12" points="218.33 68.47 203.43 125.44 245.87 125.44 218.33 68.47"/>
              <polygon class="cls-14" points="203.43 73.69 182.21 125.44 224.65 125.44 203.43 73.69"/>
              <polygon class="cls-25" points="192.02 65.03 167.01 125.44 209.44 125.44 192.02 65.03"/>
            </g>
            <g>
              <polygon class="cls-20" points="407.34 104.65 428.56 151.39 386.12 151.39 407.34 104.65"/>
              <polygon class="cls-8" points="217.3 91.97 238.52 124.06 196.08 124.06 217.3 91.97"/>
              <polygon class="cls-33" points="349.52 102.47 370.74 151.39 328.3 151.39 349.52 102.47"/>
              <polygon class="cls-9" points="427.67 101.08 457.74 151.39 415.3 151.39 427.67 101.08"/>
              <polygon class="cls-2" points="338.37 105 355.8 151.39 313.36 151.39 338.37 105"/>
              <polygon class="cls-22" points="388.42 107.7 409.64 151.39 367.2 151.39 388.42 107.7"/>
              <polygon class="cls-35" points="227.12 95.02 248.34 151.39 205.9 151.39 227.12 95.02"/>
              <polygon class="cls-4" points="248.34 101.71 269.56 151.39 227.12 151.39 248.34 101.71"/>
              <polygon class="cls-39" points="270.8 108.12 292.02 151.39 249.58 151.39 270.8 108.12"/>
              <polygon class="cls-23" points="372.45 98.39 393.67 151.39 351.23 151.39 372.45 98.39"/>
              <polygon class="cls-10" points="303.29 97.41 328.3 151.39 285.86 151.39 303.29 97.41"/>
              <polygon class="cls-36" points="319.04 106.97 344.05 151.39 301.61 151.39 319.04 106.97"/>
              <polygon class="cls-6" points="281.27 107.46 302.49 151.39 260.05 151.39 281.27 107.46"/>
              <polygon class="cls-5" points="152.51 93.32 173.73 151.39 131.29 151.39 152.51 93.32"/>
              <polygon class="cls-37" points="172.16 98.05 187.06 151.39 144.62 151.39 172.16 98.05"/>
              <polygon class="cls-30" points="187.06 101.8 208.28 151.39 165.84 151.39 187.06 101.8"/>
              <polygon class="cls-29" points="198.47 95.59 223.49 151.39 181.05 151.39 198.47 95.59"/>
            </g>
          </g>
          <path class="cls-11" d="M-83.68,151.39H240.19c.49-2.26,.28-4.28-1.06-6.2-3.18-4.55-11.05-6.46-19.98-5.49,.12-.17,.24-.33,.36-.5,6.37-9.54,5.71-19.5-1.47-22.25-7.18-2.75-18.17,2.76-24.54,12.3-.12,.17-.21,.35-.32,.52-1.25-2.63-3.52-4.73-6.71-5.81-7.17-2.43-16.36,1.12-21.28,7.99,.3-8.44-3.03-15.25-7.71-15.45-3.65-.15-7.08,3.75-8.86,9.47-2.35-2.68-7.24-4.43-13.05-4.68,1.31-1.1,2.32-2.37,2.94-3.79,.94-2.21,.84-4.53-.12-6.77,.61,.26,1.24,.5,1.9,.73,9.27,3.18,19.09,1.91,21.94-2.84,2.83-4.73-2.33-11.13-11.53-14.32,10.85-5.54,16.18-14,12-19.97-3.09-4.41-10.59-6.33-19.2-5.55,2.53-2.34,3.77-5.11,3.17-7.89-1.35-6.26-11.48-10.22-22.62-8.85-.79,.1-1.57,.23-2.33,.37,2.17-6.04,.15-11.78-5.25-13.61-5.04-1.71-11.49,.52-15.99,5.1-.49-1.43-1.33-2.77-2.57-3.94-1.92-1.81-4.53-3.03-7.53-3.65,.62-.25,1.24-.51,1.84-.8,8.61-4.11,12.62-11.01,8.95-15.42-3.66-4.39-13.55-4.66-22.14-.6-.13-9.9-6.53-17.93-15.42-18.58-6.57-.48-12.81,3.21-16.69,9.08-1.19-2.89-3.56-5.2-6.96-6.35-7.65-2.59-17.6,1.62-22.21,9.42-.35,.59-.64,1.19-.91,1.78C12.02,10.08,5.16,7.86,.05,9.82c-4.3,1.64-6.2,5.8-5.39,10.5-5.3-2.25-10.66-2.5-12.71-.38-1.18,1.22-1.04,2.99,.13,4.87-3.53-1.49-8.27-2.24-13.37-1.88,5.75-8.9,4.79-18.24-2.77-21.84-5.59-2.66-13.35-1.48-20.3,2.45,.65-2.99-.1-5.85-2.46-8.04-5.31-4.92-16.69-4.52-25.43,.88l-1.44,.79V151.39Z"/>
          <path class="cls-18" d="M-50,151.39V73.54c1.54-1.17,3.18-1.94,5.23-2.16,4.86-.52,9.67,2.15,12.7,6.51,.08-.12,.15-.25,.23-.37,4.66-6.86,12.63-10.79,17.79-8.78,5.17,2.01,5.57,9.2,.91,16.06-.08,.12-.18,.24-.26,.36,2.56-.56,5.15-.45,7.33,.5,4.92,2.14,6.07,7.71,2.85,12.79,6.38-3.71,13.05-5.12,15.19-3.14,1.67,1.55,.1,4.72-3.55,7.93,3.06-.1,6.49,1.32,9.14,3.78,.29-1.05,.84-2.03,1.68-2.91,1.3-1.35,3.14-2.29,5.28-2.82-.46-.16-.91-.34-1.36-.53-6.38-2.75-9.57-7.63-7.11-10.9,2.45-3.26,9.57-3.69,15.94-.97-.32-7.14,3.95-13.09,10.32-13.77,4.71-.5,9.37,2,12.42,6.14,.73-2.11,2.34-3.83,4.75-4.75,5.41-2.06,12.75,.74,16.41,6.25,.26,.39,.49,.79,.7,1.19,3.74-3.52,9.03-5.06,12.73-3.44,3.46,1.51,4.47,5.3,2.84,9.23,1.31-.39,2.7-.59,4.13-.54,2.21,.08,4.25,.72,6.01,1.78-.07-.38-.13-.76-.16-1.15-.48-5.55,3.15-10.25,8.11-10.49,4.94-.25,9.33,4.02,9.85,9.54,7.7-4.14,16.61-4.71,20.87-1.06,3.15,2.7,2.95,7.02,.07,11.23,2.73-.7,5.52-.63,7.85,.39,5.24,2.29,6.2,8.47,2.14,13.81-.31,.4-.64,.79-.99,1.16,5.7,.12,10.32,2.21,10.98,5.3,.55,2.6-1.85,5.2-5.82,6.83,3.98,1.39,6.44,3.65,5.67,5.46-.44,1.04-1.87,1.73-3.82,2.01,2.65,.93,5.23,2.71,7.11,5.12,4.43-6.31,12.05-9.85,18.03-8.03,4.42,1.34,6.8,5.28,6.71,10.01,2.03-1.55,4.56-2.44,7.24-2.32,6.04,.26,10.56,5.46,10.1,11.62v.97H-50Z"/>
          <path class="cls-3" d="M750,151.39V14.81c-2.69-2.06-5.58-3.4-9.18-3.79-8.52-.91-16.96,3.77-22.28,11.42-.14-.22-.26-.43-.41-.65-8.18-12.03-22.16-18.93-31.22-15.4-9.06,3.53-9.78,16.15-1.6,28.18,.15,.22,.31,.42,.46,.63-4.5-.99-9.03-.78-12.86,.89-8.62,3.76-10.64,13.52-4.99,22.45-11.2-6.51-22.9-8.99-26.65-5.5-2.92,2.72-.18,8.28,6.23,13.91-5.38-.17-11.38,2.32-16.04,6.64-.51-1.83-1.47-3.56-2.96-5.1-2.29-2.37-5.51-4.02-9.26-4.94,.8-.29,1.6-.59,2.39-.93,11.2-4.83,16.78-13.39,12.47-19.13-4.3-5.72-16.79-6.47-27.96-1.7,.57-12.53-6.93-22.96-18.11-24.16-8.27-.88-16.45,3.51-21.79,10.77-1.29-3.7-4.11-6.72-8.33-8.33-9.49-3.61-22.38,1.3-28.79,10.97-.46,.69-.86,1.39-1.23,2.08-6.56-6.17-15.84-8.87-22.33-6.04-6.06,2.64-7.84,9.3-4.99,16.19-2.31-.69-4.74-1.03-7.25-.94-3.88,.14-7.46,1.27-10.55,3.13,.13-.66,.23-1.34,.29-2.03,.85-9.73-5.52-17.98-14.23-18.41-8.67-.43-16.38,7.05-17.27,16.73-13.51-7.26-29.13-8.27-36.61-1.85-5.53,4.74-5.18,12.33-.12,19.7-4.79-1.23-9.68-1.1-13.77,.68-9.2,4.01-10.88,14.86-3.76,24.23,.54,.71,1.13,1.38,1.73,2.03-10,.2-18.1,3.89-19.26,9.3-.97,4.56,3.24,9.12,10.21,11.99-6.99,2.44-11.3,6.41-9.96,9.58,.78,1.82,3.28,3.03,6.7,3.52-4.64,1.63-9.17,4.75-12.48,8.97-7.77-11.07-21.14-17.28-31.63-14.09-7.75,2.36-11.94,9.26-11.78,17.56-3.56-2.72-8-4.27-12.71-4.07-10.6,.46-18.53,9.58-17.71,20.38v1.71h449.58Z"/>
          <path class="cls-31" d="M377.76,162.72h237.48v-57.58c1.16-4.98-1.5-9.49-5.95-10.09-3.82-.51-7.71,2.04-9.47,5.92-.34-.29-.7-.58-1.08-.85-5.37-3.85-12.8-4.52-16.58-1.5-1.68,1.34-2.35,3.19-2.12,5.17-2.34-1.54-4.89-2.54-7.34-2.9,.86-1.06,1.11-2.1,.55-2.93-1.05-1.53-4.55-1.78-8.28-.72,1.15-2.98,.47-5.82-2.1-7.22-3.27-1.77-8.48-.6-12.33,2.57,.45-4.72-2.02-8.7-6.06-9.29-3.77-.55-7.71,2.04-9.75,6.06-.3-4.22-2.71-7.62-6.76-8.65-5.07-1.29-11.08,1.52-14.82,6.51-4.42-3.95-10.61-5.54-14.63-3.51-4.48,2.26-4.54,8.16-.13,13.17,1.07,1.22,2.31,2.27,3.63,3.13-1.47,0-2.9,.23-4.21,.74-1.16,.45-2.13,1.08-2.93,1.84-1.07-3.65-4.14-6.29-7.76-6.3-3.88,0-7.12,3.02-7.97,7.08-.4-.24-.82-.48-1.26-.7-6.17-3.09-13.64-2.77-16.67,.7-1.35,1.54-1.59,3.45-.9,5.37-4.87-2.21-10.04-2.59-13.46-.58-4.62,2.72-4.42,8.87,.11,14.39-6.64,.04-11.99,2.82-11.97,6.23,.02,3.42,5.45,6.17,12.12,6.15,.47,0,.93-.02,1.39-.05-1.37,1.15-2.25,2.52-2.47,4.03-.14,.98,.02,1.94,.41,2.87-3.56-1.03-7.11-.98-9.47,.15,.96-3.78,.29-6.82-1.95-7.46-2.87-.83-7.28,2.57-10.09,7.68-.51-5.11-4.75-9.1-9.9-9.1-2.29,0-4.39,.79-6.08,2.12,0-.13,0-.25,0-.38-.43-7-5.06-12.53-10.33-12.34-5.27,.19-9.2,6.01-8.77,13.02,0,.13,.03,.25,.04,.37-5-2.4-10.38-2.85-13.9-.77-5.13,3.03-4.34,10.27,1.75,16.19v11.45Zm133.52-59.99c.17,.27,.36,.53,.56,.78-.34-.26-.7-.51-1.06-.75,.17,0,.33-.02,.49-.03Z"/>
        </g>
      </g>
    </g>
  </g>
</svg>