<?xml version="1.0" encoding="UTF-8"?>
<svg id="Layer_2" data-name="Layer 2" xmlns="http://www.w3.org/2000/svg" xmlns:xlink="http://www.w3.org/1999/xlink" viewBox="0 0 750 200">
  <defs>
    <style>
      .cls-1 {
        fill: url(#Degradado_sin_nombre_33-12);
      }

      .cls-2 {
        fill: url(#Degradado_sin_nombre_33-21);
      }

      .cls-3 {
        fill: url(#Degradado_sin_nombre_15-2);
      }

      .cls-4 {
        fill: url(#Degradado_sin_nombre_33-24);
      }

      .cls-5 {
        fill: url(#Degradado_sin_nombre_33-30);
      }

      .cls-6 {
        fill: url(#Degradado_sin_nombre_33-29);
      }

      .cls-7 {
        fill: url(#Degradado_sin_nombre_33-5);
      }

      .cls-8 {
        fill: url(#Degradado_sin_nombre_33-18);
      }

      .cls-9 {
        fill: url(#Degradado_sin_nombre_33-20);
      }

      .cls-10 {
        fill: url(#Degradado_sin_nombre_33-27);
      }

      .cls-11 {
        fill: url(#Degradado_sin_nombre_15);
      }

      .cls-12 {
        fill: url(#Degradado_sin_nombre_33-14);
      }

      .cls-13 {
        fill: url(#Degradado_sin_nombre_33);
      }

      .cls-14 {
        fill: url(#Degradado_sin_nombre_33-15);
      }

      .cls-15 {
        fill: url(#Degradado_sin_nombre_33-3);
      }

      .cls-16 {
        fill: url(#Degradado_sin_nombre_33-10);
      }

      .cls-17 {
        fill: url(#Degradado_sin_nombre_33-9);
      }

      .cls-18 {
        fill: url(#Degradado_sin_nombre_19);
      }

      .cls-19 {
        fill: url(#Degradado_sin_nombre_33-8);
      }

      .cls-20 {
        fill: url(#Degradado_sin_nombre_33-17);
      }

      .cls-21 {
        fill: url(#Degradado_sin_nombre_33-4);
      }

      .cls-22 {
        fill: url(#Degradado_sin_nombre_33-22);
      }

      .cls-23 {
        fill: url(#Degradado_sin_nombre_33-26);
      }

      .cls-24 {
        clip-path: url(#clippath);
      }

      .cls-25 {
        fill: url(#Degradado_sin_nombre_33-16);
      }

      .cls-26 {
        fill: url(#Degradado_sin_nombre_33-2);
      }

      .cls-27 {
        fill: none;
      }

      .cls-28 {
        fill: url(#Degradado_sin_nombre_33-11);
      }

      .cls-29 {
        fill: url(#Degradado_sin_nombre_33-33);
      }

      .cls-30 {
        fill: url(#Degradado_sin_nombre_33-32);
      }

      .cls-31 {
        fill: url(#Degradado_sin_nombre_19-2);
      }

      .cls-32 {
        fill: url(#Degradado_sin_nombre_33-6);
      }

      .cls-33 {
        fill: url(#Degradado_sin_nombre_33-19);
      }

      .cls-34 {
        fill: url(#Degradado_sin_nombre_33-13);
      }

      .cls-35 {
        fill: url(#Degradado_sin_nombre_33-23);
      }

      .cls-36 {
        fill: url(#Degradado_sin_nombre_33-28);
      }

      .cls-37 {
        fill: url(#Degradado_sin_nombre_33-31);
      }

      .cls-38 {
        fill: url(#Degradado_sin_nombre_33-7);
      }

      .cls-39 {
        fill: url(#Degradado_sin_nombre_33-25);
      }
    </style>
    <clipPath id="clippath">
      <rect class="cls-27" width="750" height="200"/>
    </clipPath>
    <linearGradient id="Degradado_sin_nombre_33" data-name="Degradado sin nombre 33" x1="289.23" y1="165.71" x2="289.23" y2="122.43" gradientUnits="userSpaceOnUse">
      <stop offset="0" stop-color="#1c7eb6"/>
      <stop offset="1" stop-color="#44408d"/>
    </linearGradient>
    <linearGradient id="Degradado_sin_nombre_33-2" data-name="Degradado sin nombre 33" x1="173.19" y1="138.31" x2="173.19" y2="79.25" xlink:href="#Degradado_sin_nombre_33"/>
    <linearGradient id="Degradado_sin_nombre_33-3" data-name="Degradado sin nombre 33" x1="371.13" x2="371.13" y2="118.42" xlink:href="#Degradado_sin_nombre_33"/>
    <linearGradient id="Degradado_sin_nombre_33-4" data-name="Degradado sin nombre 33" x1="260.05" x2="260.05" y2="115.86" xlink:href="#Degradado_sin_nombre_33"/>
    <linearGradient id="Degradado_sin_nombre_33-5" data-name="Degradado sin nombre 33" x1="386.07" x2="386.07" y2="123.08" xlink:href="#Degradado_sin_nombre_33"/>
    <linearGradient id="Degradado_sin_nombre_33-6" data-name="Degradado sin nombre 33" x1="320.19" x2="320.19" y2="128.05" xlink:href="#Degradado_sin_nombre_33"/>
    <linearGradient id="Degradado_sin_nombre_33-7" data-name="Degradado sin nombre 33" x1="163.37" x2="163.37" y2="54.88" xlink:href="#Degradado_sin_nombre_33"/>
    <linearGradient id="Degradado_sin_nombre_33-8" data-name="Degradado sin nombre 33" x1="142.15" x2="142.15" y2="97.19" xlink:href="#Degradado_sin_nombre_33"/>
    <linearGradient id="Degradado_sin_nombre_33-9" data-name="Degradado sin nombre 33" x1="119.69" x2="119.69" y2="108.98" xlink:href="#Degradado_sin_nombre_33"/>
    <linearGradient id="Degradado_sin_nombre_33-10" data-name="Degradado sin nombre 33" x1="348.2" x2="348.2" y2="110.91" xlink:href="#Degradado_sin_nombre_33"/>
    <linearGradient id="Degradado_sin_nombre_33-11" data-name="Degradado sin nombre 33" x1="413.57" x2="413.57" y2="105.54" xlink:href="#Degradado_sin_nombre_33"/>
    <linearGradient id="Degradado_sin_nombre_33-12" data-name="Degradado sin nombre 33" x1="439.38" x2="439.38" y2="115.86" xlink:href="#Degradado_sin_nombre_33"/>
    <linearGradient id="Degradado_sin_nombre_33-13" data-name="Degradado sin nombre 33" x1="250.02" x2="250.02" y2="111.11" xlink:href="#Degradado_sin_nombre_33"/>
    <linearGradient id="Degradado_sin_nombre_33-14" data-name="Degradado sin nombre 33" x1="224.65" x2="224.65" y2="90.45" xlink:href="#Degradado_sin_nombre_33"/>
    <linearGradient id="Degradado_sin_nombre_33-15" data-name="Degradado sin nombre 33" x1="203.43" x2="203.43" y2="97.36" xlink:href="#Degradado_sin_nombre_33"/>
    <linearGradient id="Degradado_sin_nombre_33-16" data-name="Degradado sin nombre 33" x1="188.23" x2="188.23" y2="85.91" xlink:href="#Degradado_sin_nombre_33"/>
    <linearGradient id="Degradado_sin_nombre_33-17" data-name="Degradado sin nombre 33" x1="99.22" y1="200" x2="99.22" y2="138.25" gradientTransform="translate(506.56) rotate(-180) scale(1 -1)" xlink:href="#Degradado_sin_nombre_33"/>
    <linearGradient id="Degradado_sin_nombre_33-18" data-name="Degradado sin nombre 33" x1="289.26" y1="163.89" x2="289.26" y2="121.5" gradientTransform="translate(506.56) rotate(-180) scale(1 -1)" xlink:href="#Degradado_sin_nombre_33"/>
    <linearGradient id="Degradado_sin_nombre_33-19" data-name="Degradado sin nombre 33" x1="157.04" y1="200" x2="157.04" y2="135.38" gradientTransform="translate(506.56) rotate(-180) scale(1 -1)" xlink:href="#Degradado_sin_nombre_33"/>
    <linearGradient id="Degradado_sin_nombre_33-20" data-name="Degradado sin nombre 33" x1="70.04" y1="200" x2="70.04" y2="133.53" gradientTransform="translate(506.56) rotate(-180) scale(1 -1)" xlink:href="#Degradado_sin_nombre_33"/>
    <linearGradient id="Degradado_sin_nombre_33-21" data-name="Degradado sin nombre 33" x1="171.98" y1="200" x2="171.98" y2="138.72" gradientTransform="translate(506.56) rotate(-180) scale(1 -1)" xlink:href="#Degradado_sin_nombre_33"/>
    <linearGradient id="Degradado_sin_nombre_33-22" data-name="Degradado sin nombre 33" x1="118.14" y1="200" x2="118.14" y2="142.29" gradientTransform="translate(506.56) rotate(-180) scale(1 -1)" xlink:href="#Degradado_sin_nombre_33"/>
    <linearGradient id="Degradado_sin_nombre_33-23" data-name="Degradado sin nombre 33" x1="279.44" y1="200" x2="279.44" y2="125.54" gradientTransform="translate(506.56) rotate(-180) scale(1 -1)" xlink:href="#Degradado_sin_nombre_33"/>
    <linearGradient id="Degradado_sin_nombre_33-24" data-name="Degradado sin nombre 33" x1="258.22" y1="200" x2="258.22" y2="134.37" gradientTransform="translate(506.56) rotate(-180) scale(1 -1)" xlink:href="#Degradado_sin_nombre_33"/>
    <linearGradient id="Degradado_sin_nombre_33-25" data-name="Degradado sin nombre 33" x1="235.76" y1="200" x2="235.76" y2="142.84" gradientTransform="translate(506.56) rotate(-180) scale(1 -1)" xlink:href="#Degradado_sin_nombre_33"/>
    <linearGradient id="Degradado_sin_nombre_33-26" data-name="Degradado sin nombre 33" x1="134.11" y1="200" x2="134.11" y2="129.98" gradientTransform="translate(506.56) rotate(-180) scale(1 -1)" xlink:href="#Degradado_sin_nombre_33"/>
    <linearGradient id="Degradado_sin_nombre_33-27" data-name="Degradado sin nombre 33" x1="199.48" y1="200" x2="199.48" y2="128.68" gradientTransform="translate(506.56) rotate(-180) scale(1 -1)" xlink:href="#Degradado_sin_nombre_33"/>
    <linearGradient id="Degradado_sin_nombre_33-28" data-name="Degradado sin nombre 33" x1="183.73" y1="200" x2="183.73" y2="141.31" gradientTransform="translate(506.56) rotate(-180) scale(1 -1)" xlink:href="#Degradado_sin_nombre_33"/>
    <linearGradient id="Degradado_sin_nombre_33-29" data-name="Degradado sin nombre 33" x1="225.29" y1="200" x2="225.29" y2="141.97" gradientTransform="translate(506.56) rotate(-180) scale(1 -1)" xlink:href="#Degradado_sin_nombre_33"/>
    <linearGradient id="Degradado_sin_nombre_33-30" data-name="Degradado sin nombre 33" x1="354.05" y1="200" x2="354.05" y2="123.28" gradientTransform="translate(506.56) rotate(-180) scale(1 -1)" xlink:href="#Degradado_sin_nombre_33"/>
    <linearGradient id="Degradado_sin_nombre_33-31" data-name="Degradado sin nombre 33" x1="340.72" y1="200" x2="340.72" y2="129.54" gradientTransform="translate(506.56) rotate(-180) scale(1 -1)" xlink:href="#Degradado_sin_nombre_33"/>
    <linearGradient id="Degradado_sin_nombre_33-32" data-name="Degradado sin nombre 33" x1="319.5" y1="200" x2="319.5" y2="134.49" gradientTransform="translate(506.56) rotate(-180) scale(1 -1)" xlink:href="#Degradado_sin_nombre_33"/>
    <linearGradient id="Degradado_sin_nombre_33-33" data-name="Degradado sin nombre 33" x1="304.29" y1="200" x2="304.29" y2="126.28" gradientTransform="translate(506.56) rotate(-180) scale(1 -1)" xlink:href="#Degradado_sin_nombre_33"/>
    <linearGradient id="Degradado_sin_nombre_15" data-name="Degradado sin nombre 15" x1="164.32" y1="280.34" x2="13.66" y2="133.35" gradientTransform="translate(164.29 -113.38) rotate(45.71)" gradientUnits="userSpaceOnUse">
      <stop offset="0" stop-color="#84bcea"/>
      <stop offset="1" stop-color="#1c92da"/>
    </linearGradient>
    <linearGradient id="Degradado_sin_nombre_19" data-name="Degradado sin nombre 19" x1="293.26" y1="186.03" x2="293.26" y2="68.51" gradientTransform="translate(385.16 75.73) rotate(-171.67) scale(1 -1)" gradientUnits="userSpaceOnUse">
      <stop offset=".34" stop-color="#fff"/>
      <stop offset="1" stop-color="#74b8ed"/>
    </linearGradient>
    <linearGradient id="Degradado_sin_nombre_15-2" data-name="Degradado sin nombre 15" x1="527.65" y1="233.54" x2="527.65" y2="27.36" gradientTransform="translate(-13.03 75.73) rotate(-8.33)" xlink:href="#Degradado_sin_nombre_15"/>
    <linearGradient id="Degradado_sin_nombre_19-2" data-name="Degradado sin nombre 19" x1="476.75" y1="233.32" x2="548.37" y2="151.51" gradientTransform="translate(-18.32 353.45) rotate(-41.2)" xlink:href="#Degradado_sin_nombre_19"/>
  </defs>
  <g id="OBJECTS">
    <g id="Vegetation_Back" data-name="Vegetation Back">
      <g class="cls-24">
        <g id="Vegetation_back" data-name="Vegetation back">
          <g>
            <g>
              <polygon class="cls-13" points="289.23 122.43 268.01 165.71 310.45 165.71 289.23 122.43"/>
              <polygon class="cls-26" points="173.19 79.25 151.97 138.31 194.41 138.31 173.19 79.25"/>
              <polygon class="cls-15" points="371.13 118.42 349.91 165.71 392.35 165.71 371.13 118.42"/>
              <polygon class="cls-21" points="268.9 115.86 238.83 165.71 281.27 165.71 268.9 115.86"/>
              <polygon class="cls-7" points="382.28 123.08 364.85 165.71 407.29 165.71 382.28 123.08"/>
              <polygon class="cls-32" points="320.19 128.05 298.97 165.71 341.41 165.71 320.19 128.05"/>
              <polygon class="cls-38" points="163.37 54.88 142.15 165.71 184.59 165.71 163.37 54.88"/>
              <polygon class="cls-19" points="142.15 97.19 120.93 165.71 163.37 165.71 142.15 97.19"/>
              <polygon class="cls-17" points="119.69 108.98 98.47 165.71 140.91 165.71 119.69 108.98"/>
              <polygon class="cls-16" points="348.2 110.91 326.98 165.71 369.42 165.71 348.2 110.91"/>
              <polygon class="cls-28" points="417.36 105.54 392.35 165.71 434.79 165.71 417.36 105.54"/>
              <polygon class="cls-1" points="439.38 115.86 418.17 165.71 460.6 165.71 439.38 115.86"/>
              <polygon class="cls-34" points="250.02 111.11 228.81 165.71 271.24 165.71 250.02 111.11"/>
              <polygon class="cls-12" points="218.33 90.45 203.43 165.71 245.87 165.71 218.33 90.45"/>
              <polygon class="cls-14" points="203.43 97.36 182.21 165.71 224.65 165.71 203.43 97.36"/>
              <polygon class="cls-25" points="192.02 85.91 167.01 165.71 209.44 165.71 192.02 85.91"/>
            </g>
            <g>
              <polygon class="cls-20" points="407.34 138.25 428.56 200 386.12 200 407.34 138.25"/>
              <polygon class="cls-8" points="217.3 121.5 238.52 163.89 196.08 163.89 217.3 121.5"/>
              <polygon class="cls-33" points="349.52 135.38 370.74 200 328.3 200 349.52 135.38"/>
              <polygon class="cls-9" points="427.67 133.53 457.74 200 415.3 200 427.67 133.53"/>
              <polygon class="cls-2" points="338.37 138.72 355.8 200 313.36 200 338.37 138.72"/>
              <polygon class="cls-22" points="388.42 142.29 409.64 200 367.2 200 388.42 142.29"/>
              <polygon class="cls-35" points="227.12 125.54 248.34 200 205.9 200 227.12 125.54"/>
              <polygon class="cls-4" points="248.34 134.37 269.56 200 227.12 200 248.34 134.37"/>
              <polygon class="cls-39" points="270.8 142.84 292.02 200 249.58 200 270.8 142.84"/>
              <polygon class="cls-23" points="372.45 129.98 393.67 200 351.23 200 372.45 129.98"/>
              <polygon class="cls-10" points="303.29 128.68 328.3 200 285.86 200 303.29 128.68"/>
              <polygon class="cls-36" points="319.04 141.31 344.05 200 301.61 200 319.04 141.31"/>
              <polygon class="cls-6" points="281.27 141.97 302.49 200 260.05 200 281.27 141.97"/>
              <polygon class="cls-5" points="152.51 123.28 173.73 200 131.29 200 152.51 123.28"/>
              <polygon class="cls-37" points="172.16 129.54 187.06 200 144.62 200 172.16 129.54"/>
              <polygon class="cls-30" points="187.06 134.49 208.28 200 165.84 200 187.06 134.49"/>
              <polygon class="cls-29" points="198.47 126.28 223.49 200 181.05 200 198.47 126.28"/>
            </g>
          </g>
          <path class="cls-11" d="M-83.68,200H240.19c.49-2.98,.28-5.65-1.06-8.19-3.18-6.01-11.05-8.53-19.98-7.25,.12-.22,.24-.43,.36-.66,6.37-12.6,5.71-25.76-1.47-29.4-7.18-3.63-18.17,3.64-24.54,16.25-.12,.23-.21,.46-.32,.68-1.25-3.48-3.52-6.25-6.71-7.68-7.17-3.21-16.36,1.48-21.28,10.56,.3-11.14-3.03-20.15-7.71-20.41-3.65-.2-7.08,4.96-8.86,12.51-2.35-3.54-7.24-5.85-13.05-6.18,1.31-1.45,2.32-3.12,2.94-5.01,.94-2.92,.84-5.98-.12-8.95,.61,.34,1.24,.66,1.9,.96,9.27,4.2,19.09,2.53,21.94-3.75,2.83-6.25-2.33-14.7-11.53-18.92,10.85-7.32,16.18-18.5,12-26.38-3.09-5.83-10.59-8.36-19.2-7.33,2.53-3.09,3.77-6.75,3.17-10.43-1.35-8.28-11.48-13.51-22.62-11.69-.79,.13-1.57,.3-2.33,.49,2.17-7.98,.15-15.56-5.25-17.98-5.04-2.26-11.49,.68-15.99,6.73-.49-1.89-1.33-3.66-2.57-5.21-1.92-2.39-4.53-4-7.53-4.83,.62-.33,1.24-.67,1.84-1.06,8.61-5.42,12.62-14.55,8.95-20.38-3.66-5.81-13.55-6.15-22.14-.79-.13-13.08-6.53-23.69-15.42-24.54-6.57-.63-12.81,4.24-16.69,11.99-1.19-3.82-3.56-6.87-6.96-8.39-7.65-3.43-17.6,2.15-22.21,12.45-.35,.78-.64,1.57-.91,2.35C12.02,13.31,5.16,10.39,.05,12.97c-4.3,2.17-6.2,7.66-5.39,13.87-5.3-2.98-10.66-3.3-12.71-.5-1.18,1.61-1.04,3.95,.13,6.44-3.53-1.97-8.27-2.95-13.37-2.48,5.75-11.75,4.79-24.1-2.77-28.85-5.59-3.51-13.35-1.96-20.3,3.23,.65-3.94-.1-7.73-2.46-10.62-5.31-6.5-16.69-5.97-25.43,1.16l-1.44,1.05V200Z"/>
          <path class="cls-18" d="M-50,200V97.16c1.54-1.55,3.18-2.56,5.23-2.85,4.86-.69,9.67,2.84,12.7,8.6,.08-.16,.15-.33,.23-.49,4.66-9.06,12.63-14.25,17.79-11.6,5.17,2.66,5.57,12.16,.91,21.22-.08,.16-.18,.32-.26,.48,2.56-.74,5.15-.59,7.33,.67,4.92,2.83,6.07,10.18,2.85,16.9,6.38-4.9,13.05-6.77,15.19-4.14,1.67,2.04,.1,6.24-3.55,10.48,3.06-.13,6.49,1.75,9.14,5,.29-1.38,.84-2.68,1.68-3.84,1.3-1.79,3.14-3.03,5.28-3.72-.46-.22-.91-.45-1.36-.7-6.38-3.63-9.57-10.08-7.11-14.4,2.45-4.3,9.57-4.87,15.94-1.28-.32-9.44,3.95-17.29,10.32-18.19,4.71-.67,9.37,2.64,12.42,8.11,.73-2.79,2.34-5.06,4.75-6.27,5.41-2.72,12.75,.98,16.41,8.26,.26,.52,.49,1.04,.7,1.57,3.74-4.65,9.03-6.68,12.73-4.55,3.46,1.99,4.47,7,2.84,12.19,1.31-.52,2.7-.78,4.13-.71,2.21,.11,4.25,.95,6.01,2.35-.07-.5-.13-1.01-.16-1.52-.48-7.33,3.15-13.54,8.11-13.86,4.94-.32,9.33,5.31,9.85,12.6,7.7-5.47,16.61-6.22,20.87-1.4,3.15,3.57,2.95,9.28,.07,14.83,2.73-.92,5.52-.83,7.85,.51,5.24,3.02,6.2,11.19,2.14,18.24-.31,.53-.64,1.04-.99,1.53,5.7,.15,10.32,2.93,10.98,7,.55,3.43-1.85,6.87-5.82,9.03,3.98,1.83,6.44,4.83,5.67,7.21-.44,1.37-1.87,2.28-3.82,2.65,2.65,1.23,5.23,3.58,7.11,6.76,4.43-8.34,12.05-13.01,18.03-10.61,4.42,1.78,6.8,6.97,6.71,13.22,2.03-2.05,4.56-3.22,7.24-3.06,6.04,.35,10.56,7.22,10.1,15.35v1.29H-50Z"/>
          <path class="cls-3" d="M750,200V19.56c-2.69-2.72-5.58-4.5-9.18-5-8.52-1.2-16.96,4.98-22.28,15.09-.14-.29-.26-.57-.41-.86-8.18-15.9-22.16-25.01-31.22-20.35-9.06,4.66-9.78,21.33-1.6,37.23,.15,.29,.31,.56,.46,.84-4.5-1.3-9.03-1.04-12.86,1.17-8.62,4.96-10.64,17.86-4.99,29.66-11.2-8.59-22.9-11.87-26.65-7.27-2.92,3.59-.18,10.94,6.23,18.38-5.38-.23-11.38,3.07-16.04,8.77-.51-2.42-1.47-4.71-2.96-6.74-2.29-3.14-5.51-5.31-9.26-6.53,.8-.38,1.6-.78,2.39-1.23,11.2-6.38,16.78-17.69,12.47-25.27-4.3-7.55-16.79-8.54-27.96-2.25,.57-16.56-6.93-30.33-18.11-31.91-8.27-1.17-16.45,4.64-21.79,14.23-1.29-4.89-4.11-8.88-8.33-11-9.49-4.77-22.38,1.72-28.79,14.49-.46,.91-.86,1.83-1.23,2.75-6.56-8.15-15.84-11.72-22.33-7.98-6.06,3.49-7.84,12.28-4.99,21.39-2.31-.91-4.74-1.36-7.25-1.24-3.88,.18-7.46,1.67-10.55,4.13,.13-.88,.23-1.77,.29-2.68,.85-12.86-5.52-23.75-14.23-24.32-8.67-.57-16.38,9.31-17.27,22.1-13.51-9.59-29.13-10.92-36.61-2.45-5.53,6.26-5.18,16.28-.12,26.02-4.79-1.62-9.68-1.46-13.77,.9-9.2,5.3-10.88,19.63-3.76,32.01,.54,.94,1.13,1.83,1.73,2.69-10,.27-18.1,5.13-19.26,12.29-.97,6.02,3.24,12.05,10.21,15.84-6.99,3.22-11.3,8.47-9.96,12.65,.78,2.41,3.28,4.01,6.7,4.65-4.64,2.15-9.17,6.28-12.48,11.86-7.77-14.63-21.14-22.83-31.63-18.61-7.75,3.12-11.94,12.23-11.78,23.2-3.56-3.6-8-5.65-12.71-5.38-10.6,.61-18.53,12.66-17.71,26.93v2.26h449.58Z"/>
          <path class="cls-31" d="M377.76,214.96h237.48v-76.06c1.16-6.57-1.5-12.54-5.95-13.33-3.82-.68-7.71,2.7-9.47,7.83-.34-.38-.7-.76-1.08-1.12-5.37-5.09-12.8-5.97-16.58-1.98-1.68,1.78-2.35,4.22-2.12,6.83-2.34-2.03-4.89-3.36-7.34-3.83,.86-1.4,1.11-2.78,.55-3.87-1.05-2.02-4.55-2.35-8.28-.96,1.15-3.94,.47-7.69-2.1-9.53-3.27-2.34-8.48-.8-12.33,3.4,.45-6.24-2.02-11.5-6.06-12.27-3.77-.72-7.71,2.7-9.75,8.01-.3-5.57-2.71-10.06-6.76-11.43-5.07-1.71-11.08,2.01-14.82,8.61-4.42-5.22-10.61-7.32-14.63-4.64-4.48,2.99-4.54,10.77-.13,17.4,1.07,1.61,2.31,2.99,3.63,4.14-1.47,0-2.9,.3-4.21,.98-1.16,.59-2.13,1.43-2.93,2.43-1.07-4.83-4.14-8.31-7.76-8.32-3.88,0-7.12,3.99-7.97,9.35-.4-.32-.82-.63-1.26-.92-6.17-4.08-13.64-3.66-16.67,.93-1.35,2.04-1.59,4.56-.9,7.09-4.87-2.93-10.04-3.42-13.46-.76-4.62,3.6-4.42,11.72,.11,19.01-6.64,.06-11.99,3.73-11.97,8.23,.02,4.52,5.45,8.16,12.12,8.13,.47,0,.93-.03,1.39-.06-1.37,1.52-2.25,3.32-2.47,5.32-.14,1.29,.02,2.57,.41,3.79-3.56-1.36-7.11-1.29-9.47,.2,.96-4.99,.29-9-1.95-9.86-2.87-1.1-7.28,3.4-10.09,10.15-.51-6.75-4.75-12.02-9.9-12.03-2.29,0-4.39,1.05-6.08,2.79,0-.17,0-.33,0-.5-.43-9.25-5.06-16.55-10.33-16.3-5.27,.25-9.2,7.95-8.77,17.2,0,.17,.03,.33,.04,.49-5-3.17-10.38-3.76-13.9-1.02-5.13,4-4.34,13.57,1.75,21.39v15.13Zm133.52-79.25c.17,.36,.36,.7,.56,1.03-.34-.35-.7-.68-1.06-.99,.17,0,.33-.03,.49-.05Z"/>
        </g>
      </g>
    </g>
  </g>
</svg>