<?xml version="1.0" encoding="UTF-8"?>
<svg xmlns="http://www.w3.org/2000/svg" xmlns:xlink="http://www.w3.org/1999/xlink" viewBox="0 0 750 356.18">
  <defs>
    <style>
      .cls-1 {
        fill: url(#Degradado_sin_nombre_14-3);
      }

      .cls-2 {
        fill: url(#Degradado_sin_nombre_13);
      }

      .cls-3 {
        fill: url(#Degradado_sin_nombre_28);
      }

      .cls-4 {
        fill: url(#Degradado_sin_nombre_15-2);
      }

      .cls-5 {
        fill: #252577;
      }

      .cls-6 {
        fill: url(#Degradado_sin_nombre_28-3);
      }

      .cls-7 {
        fill: url(#Degradado_sin_nombre_34-3);
      }

      .cls-8 {
        fill: url(#Degradado_sin_nombre_15);
      }

      .cls-9 {
        isolation: isolate;
      }

      .cls-10 {
        fill: url(#Degradado_sin_nombre_12-2);
      }

      .cls-11 {
        fill: url(#Degradado_sin_nombre_34);
      }

      .cls-12 {
        fill: #454a68;
      }

      .cls-13 {
        fill: url(#Degradado_sin_nombre_28-2);
      }

      .cls-14 {
        fill: #272747;
      }

      .cls-15 {
        fill: url(#Degradado_sin_nombre_19);
      }

      .cls-16 {
        fill: url(#Degradado_sin_nombre_14);
      }

      .cls-17 {
        fill: #323654;
      }

      .cls-18 {
        clip-path: url(#clippath);
      }

      .cls-19 {
        fill: none;
      }

      .cls-20 {
        fill: url(#Degradado_sin_nombre_13-2);
      }

      .cls-21 {
        fill: url(#Degradado_sin_nombre_4);
      }

      .cls-22 {
        fill: #d35e67;
        mix-blend-mode: multiply;
        opacity: .6;
      }

      .cls-23 {
        fill: url(#Degradado_sin_nombre_34-2);
      }

      .cls-24 {
        fill: url(#Degradado_sin_nombre_19-2);
      }

      .cls-25 {
        fill: url(#Degradado_sin_nombre_23);
      }

      .cls-26 {
        fill: url(#Degradado_sin_nombre_12);
      }

      .cls-27 {
        fill: url(#Degradado_sin_nombre_14-2);
      }
    </style>
    <clipPath id="clippath">
      <rect class="cls-19" width="750" height="356.18"/>
    </clipPath>
    <linearGradient id="Degradado_sin_nombre_23" data-name="Degradado sin nombre 23" x1="645.45" y1="494.73" x2="645.45" y2="232.59" gradientTransform="translate(1177.71 -132.22) rotate(167.82) scale(1 -1)" gradientUnits="userSpaceOnUse">
      <stop offset=".36" stop-color="#1c7eb6"/>
      <stop offset="1" stop-color="#44408d"/>
    </linearGradient>
    <linearGradient id="Degradado_sin_nombre_19" data-name="Degradado sin nombre 19" x1="652.77" y1="356.05" x2="709.66" y2="299.86" gradientTransform="translate(14.39 528.91) rotate(-45.35)" gradientUnits="userSpaceOnUse">
      <stop offset=".34" stop-color="#fff"/>
      <stop offset="1" stop-color="#74b8ed"/>
    </linearGradient>
    <linearGradient id="Degradado_sin_nombre_15" data-name="Degradado sin nombre 15" x1="565.23" y1="309.09" x2="607.04" y2="267.79" gradientTransform="translate(30.82 73.27) rotate(-4.62)" gradientUnits="userSpaceOnUse">
      <stop offset="0" stop-color="#84bcea"/>
      <stop offset="1" stop-color="#1c92da"/>
    </linearGradient>
    <linearGradient id="Degradado_sin_nombre_15-2" data-name="Degradado sin nombre 15" x1="-51.08" y1="292.98" x2="-51.08" y2="262.13" gradientTransform="translate(831.69 -321.04) rotate(4.43) scale(1 2.27)" xlink:href="#Degradado_sin_nombre_15"/>
    <linearGradient id="Degradado_sin_nombre_28" data-name="Degradado sin nombre 28" x1="-165.05" y1="310.73" x2="-165.05" y2="285.27" gradientTransform="translate(831.69 -321.04) rotate(4.43) scale(1 2.27)" gradientUnits="userSpaceOnUse">
      <stop offset="0" stop-color="#fff"/>
      <stop offset="1" stop-color="#74b8ed"/>
    </linearGradient>
    <linearGradient id="Degradado_sin_nombre_14" data-name="Degradado sin nombre 14" x1="-736.52" y1="300.05" x2="-736.52" y2="263.91" gradientTransform="translate(483.38 1021.72) rotate(90) scale(1 1.54)" gradientUnits="userSpaceOnUse">
      <stop offset="0" stop-color="#44408d"/>
      <stop offset="1" stop-color="#1c7eb6"/>
    </linearGradient>
    <linearGradient id="Degradado_sin_nombre_34" data-name="Degradado sin nombre 34" x1="-2060.59" y1="-3492.85" x2="-2060.87" y2="-3484.03" gradientTransform="translate(2170.86 -1265.08) scale(1 -.42)" gradientUnits="userSpaceOnUse">
      <stop offset="0" stop-color="#fb9898"/>
      <stop offset="1" stop-color="#e38776"/>
    </linearGradient>
    <linearGradient id="Degradado_sin_nombre_34-2" data-name="Degradado sin nombre 34" x1="277.94" y1="203.85" x2="206.22" y2="275.57" gradientTransform="translate(-147.51 479.42) scale(1 -1)" xlink:href="#Degradado_sin_nombre_34"/>
    <linearGradient id="Degradado_sin_nombre_34-3" data-name="Degradado sin nombre 34" x1="234.28" y1="160.2" x2="204.21" y2="190.27" gradientTransform="translate(-101.85 350.47) scale(1 -1)" xlink:href="#Degradado_sin_nombre_34"/>
    <linearGradient id="Degradado_sin_nombre_4" data-name="Degradado sin nombre 4" x1="211.79" y1="197.12" x2="183.65" y2="225.26" gradientTransform="translate(-58.8 422.39) scale(1 -1)" gradientUnits="userSpaceOnUse">
      <stop offset="0" stop-color="#ff977c"/>
      <stop offset=".1" stop-color="#ff8974"/>
      <stop offset=".29" stop-color="#ff6761"/>
      <stop offset=".4" stop-color="#ff4e53"/>
      <stop offset=".52" stop-color="#f14550"/>
      <stop offset=".75" stop-color="#ce2f49"/>
      <stop offset="1" stop-color="#a11241"/>
    </linearGradient>
    <linearGradient id="Degradado_sin_nombre_13" data-name="Degradado sin nombre 13" x1="-691.11" y1="47.1" x2="-691.11" y2="0" gradientTransform="translate(787.56)" gradientUnits="userSpaceOnUse">
      <stop offset="0" stop-color="#1c7eb6"/>
      <stop offset="1" stop-color="#64aada"/>
    </linearGradient>
    <linearGradient id="Degradado_sin_nombre_14-2" data-name="Degradado sin nombre 14" x1="-608.12" y1="71.55" x2="-608.12" y2="41.63" gradientTransform="translate(787.56)" xlink:href="#Degradado_sin_nombre_14"/>
    <linearGradient id="Degradado_sin_nombre_13-2" data-name="Degradado sin nombre 13" x1="-781.23" y1="84.6" x2="-781.23" y2="19.05" xlink:href="#Degradado_sin_nombre_13"/>
    <linearGradient id="Degradado_sin_nombre_14-3" data-name="Degradado sin nombre 14" x1="-743.01" y1="124.45" x2="-743.01" y2="48.32" gradientTransform="translate(787.56)" xlink:href="#Degradado_sin_nombre_14"/>
    <linearGradient id="Degradado_sin_nombre_12" data-name="Degradado sin nombre 12" x1="-768.33" y1="130.51" x2="-768.33" y2="96.52" gradientTransform="translate(787.56)" gradientUnits="userSpaceOnUse">
      <stop offset="0" stop-color="#2d89bf"/>
      <stop offset="1" stop-color="#64baec"/>
    </linearGradient>
    <linearGradient id="Degradado_sin_nombre_12-2" data-name="Degradado sin nombre 12" x1="-642.67" y1="101.03" x2="-642.67" y2="56.59" xlink:href="#Degradado_sin_nombre_12"/>
    <linearGradient id="Degradado_sin_nombre_28-2" data-name="Degradado sin nombre 28" x1="-758.89" y1="295.53" x2="-758.89" y2="272.33" xlink:href="#Degradado_sin_nombre_28"/>
    <linearGradient id="Degradado_sin_nombre_28-3" data-name="Degradado sin nombre 28" x1="-648.16" y1="320.62" x2="-648.16" y2="304.94" xlink:href="#Degradado_sin_nombre_28"/>
    <linearGradient id="Degradado_sin_nombre_19-2" data-name="Degradado sin nombre 19" x1="59.71" y1="310.7" x2="59.71" y2="265.68" gradientTransform="matrix(1, 0, 0, 1, 0, 0)" xlink:href="#Degradado_sin_nombre_19"/>
  </defs>
  <g class="cls-9">
    <g id="Layer_2" data-name="Layer 2">
      <g id="OBJECTS">
        <g id="Vegetation_Front" data-name="Vegetation Front">
          <g class="cls-18">
            <g id="Bottom_Vegetation_Front" data-name="Bottom Vegetation Front">
              <g>
                <path class="cls-25" d="M760,221.39c-3.82-13.85-14.08-23.04-23.17-20.53-6.23,1.72-10.19,8.5-10.83,17.05-.18-.15-.35-.32-.54-.47-10.39-8.5-22.74-10.6-27.58-4.67-4.85,5.92-.35,17.61,10.03,26.12,.19,.15,.38,.29,.57,.44-3.49,.45-6.53,1.99-8.5,4.65-4.45,6-1.99,15.48,5.43,21.92-10.28-2.57-19.32-1.33-20.53,2.96-.94,3.34,3.15,7.59,9.79,10.79-3.77,1.45-6.92,5.52-8.42,10.84-1.08-1.51-2.42-2.8-4.05-3.75-2.51-1.48-5.38-2.01-8.33-1.73,.44-.5,.87-1.02,1.28-1.56,5.81-7.74,6.27-17.2,1.03-21.13-5.22-3.91-14.12-.86-19.93,6.81-4.56-11.57-13.84-18.82-22.02-16.56-6.05,1.67-9.94,8.11-10.75,16.31-2.35-2.99-5.49-4.89-9.03-5.09-7.96-.44-14.9,7.88-15.49,18.59-.04,.76-.04,1.52-.02,2.26-6.96-3.65-14.41-3.33-17.76,1.18-3.13,4.22-1.73,10.8,2.96,16.22-1.86,.07-3.67,.48-5.36,1.31-1.93,.95-3.52,2.35-4.78,4.06-.19-2.52-.73-5.16-1.67-7.8-3.89-10.86-13-17.53-20.35-14.9-6.58,2.36-9.5,11.37-7.25,21.03-10.91-1.36-20.43,2.42-22.83,9.8-1.91,5.89,1.22,12.58,7.45,17.75-7.94-2.21-15.32-.59-17.74,4.42-2.59,5.36,1.39,12.78,9.03,17.66-8.21,.85-14.51,5.58-14.61,11.41-.08,4.58,3.69,8.61,9.28,10.68-4.85,3.14-7.5,7.5-6.05,10.46,.78,1.59,2.61,2.5,4.97,2.7-1.58,3.26-2.24,7.37-1.9,11.85-2.83-2.53-6.25-3.86-9.77-3.44-7.92,.94-13.3,10.34-12.03,20.99,.09,.76,.22,1.5,.37,2.23-7.49-2.39-14.77-.78-17.29,4.25-2.93,5.85,1.7,14.11,10.35,18.45l3.15,19.06h272.9V221.39Z"/>
                <g>
                  <path class="cls-15" d="M764.1,255.58c-1.02-.83-2.03-1.66-3.05-2.49-7.14,8.15-14.99,15.54-23.4,22.14,5.92-8.75,11.07-18,15.36-27.65-1.18-.57-2.36-1.15-3.54-1.72-4.01,7.59-8.55,14.82-13.58,21.67,2.42-7.96,4.29-16.08,5.58-24.31-1.29-.25-2.58-.49-3.87-.74-1.4,6.16-3.14,12.21-5.18,18.14-1.8-8.77-4.24-17.39-7.33-25.8-1.25,.41-2.49,.82-3.74,1.23,3.49,11.94,5.66,24.14,6.53,36.37-.05,.11-.1,.22-.15,.33-3.11-11.22-7.28-22.12-12.49-32.53-1.19,.55-2.38,1.1-3.58,1.65,3.59,8.55,6.44,17.32,8.61,26.23-4.61-7.6-9.79-14.84-15.48-21.68-1.04,.81-2.07,1.61-3.11,2.42,8.09,11.16,14.76,23.15,19.94,35.69-.15,.15-.29,.3-.44,.45-6.25-9.02-11.69-18.66-16.18-28.83-1.22,.49-2.44,.98-3.65,1.47,2.96,8.17,6.52,16.1,10.63,23.75-7.28-5.3-14.94-10.06-22.93-14.22-.64,1.14-1.29,2.29-1.93,3.43,9.25,5.63,17.89,12.09,25.84,19.24-9.64-4.33-19.64-7.8-29.89-10.37-.36,1.26-.72,2.52-1.08,3.79,8.16,2.64,16.08,5.87,23.68,9.64-8.26-1.01-16.58-1.46-24.91-1.31-.02,1.31-.04,2.62-.06,3.94,10.92,.55,21.41,2.37,32.05,4.74,5.77,.65,12.89,2.85,16.57,7.51,1.55,1.97,3.16,3.9,4.8,5.8,.35,.41,.7,.81,1.06,1.22,.02-.23,.05-.46,.07-.69,.08-.81,.15-1.62,.21-2.43,.36-4.35,.47-8.72,.6-13.08,.04-1.42-.88-11.58-.26-11.9,11.5-5.79,23.69-10.33,36.37-13.47-.27-1.28-.54-2.57-.81-3.85-8.56,1.51-16.99,3.65-25.23,6.39,6.48-6.25,12.48-12.98,17.95-20.14Z"/>
                  <path class="cls-8" d="M668.47,320.97c-.17-.95-.33-1.9-.5-2.85-7.88,1.11-15.8,1.46-23.65,1.11,7.49-2.03,14.79-4.72,21.82-8.03-.38-.89-.77-1.77-1.15-2.66-5.87,2.3-11.87,4.15-17.95,5.55,5.16-3.28,10.1-6.9,14.77-10.86-.6-.76-1.2-1.51-1.8-2.27-3.73,2.76-7.61,5.3-11.58,7.62,3.2-5.74,5.98-11.72,8.29-17.88-.89-.37-1.78-.74-2.67-1.11-3.78,8.32-8.43,16.15-13.81,23.39-.08,.04-.16,.08-.24,.11,3.65-7.74,6.56-15.81,8.64-24.1-.93-.27-1.85-.53-2.78-.8-2.1,6.48-4.72,12.74-7.79,18.73,1.07-6.44,1.67-12.96,1.77-19.5-.96-.05-1.93-.1-2.89-.14-.85,10.09-2.88,19.97-6.01,29.44-.15,.02-.31,.03-.46,.04,.84-8.02,2.44-15.99,4.82-23.81-.91-.31-1.83-.62-2.74-.94-2.27,5.97-4.09,12.1-5.47,18.33-1.51-6.44-3.49-12.77-5.95-18.92-.91,.33-1.81,.66-2.72,.98,2.45,7.58,4.16,15.31,5.16,23.11-3.29-7.03-7.19-13.76-11.67-20.11-.81,.53-1.61,1.06-2.42,1.59,3.28,5.39,6.14,10.98,8.56,16.73-4.12-4.52-8.53-8.77-13.24-12.68-.64,.72-1.28,1.44-1.92,2.16,5.82,5.54,10.78,11.59,15.58,18.01,2.9,3.13,5.81,7.77,5.63,12.13-.08,1.84-.11,3.68-.11,5.53,0,.39,0,.79,0,1.18,.12-.12,.25-.23,.37-.35,.43-.41,.86-.83,1.28-1.25,2.29-2.25,4.45-4.63,6.61-7,.7-.77,5.06-6.88,5.56-6.75,9.18,2.29,18.15,5.61,26.72,9.94,.46-.85,.93-1.69,1.39-2.54-5.49-3.26-11.21-6.11-17.11-8.54,6.61-.38,13.18-1.24,19.66-2.61Z"/>
                  <path class="cls-4" d="M760.86,310.91c-1.21,15.6-15.28,27.23-31.43,25.98-16.15-1.25-28.26-14.92-27.05-30.52s15.28-40.52,31.43-39.27c16.15,1.25,28.26,28.2,27.05,43.8Z"/>
                  <path class="cls-3" d="M638.63,346.74c-1,12.87-12.61,22.47-25.94,21.44s-23.32-12.31-22.32-25.18c1-12.87,12.61-33.43,25.94-32.4,13.33,1.03,23.32,23.27,22.32,36.14Z"/>
                </g>
              </g>
              <g>
                <ellipse class="cls-16" cx="49.71" cy="285.23" rx="27.79" ry="42.38" transform="translate(-228.72 205.86) rotate(-64.2)"/>
                <g>
                  <rect class="cls-14" x="138.24" y="179.01" width="1.36" height="9.34" transform="translate(277.85 367.36) rotate(180)"/>
                  <g>
                    <rect class="cls-11" x="89.68" y="189.07" width="40.74" height="3.15" transform="translate(317.86 263.29) rotate(139.26)"/>
                    <rect class="cls-23" x="91.1" y="171.45" width="6.93" height="136.51" transform="translate(189.14 479.42) rotate(180)"/>
                    <rect class="cls-7" x="91.1" y="171.45" width="52.58" height="7.56" transform="translate(234.79 350.47) rotate(180)"/>
                  </g>
                  <g>
                    <rect class="cls-21" x="126.38" y="190.56" width="25.08" height="41.26" rx="8.58" ry="8.58" transform="translate(277.85 422.39) rotate(180)"/>
                    <rect class="cls-14" x="134.37" y="187.39" width="9.1" height="3.15" transform="translate(277.85 377.92) rotate(180)"/>
                    <rect class="cls-14" x="134.37" y="231.82" width="9.1" height="3.15" transform="translate(277.85 466.79) rotate(180)"/>
                    <path class="cls-22" d="M144.71,231.79h-1.44c2.55-1.08,4.35-3.59,4.35-6.53v-28.14c0-2.8-1.64-5.23-4.01-6.38h1.33c2.02,1.4,3.34,3.74,3.34,6.38v28.14c0,2.74-1.43,5.15-3.57,6.53Z"/>
                    <path class="cls-22" d="M130.23,197.12v28.14c0,2.94,1.8,5.45,4.35,6.53h-1.44c-2.15-1.38-3.57-3.79-3.57-6.53v-28.14c0-2.64,1.33-4.97,3.34-6.38h1.33c-2.37,1.15-4.01,3.57-4.01,6.38Z"/>
                    <path class="cls-22" d="M134.78,197.12v28.14c0,2.93,1.06,5.45,2.57,6.53h-.98c-1.35-1.38-2.25-3.79-2.25-6.53v-28.14c0-2.65,.84-4.97,2.12-6.38h.92c-1.4,1.15-2.37,3.58-2.37,6.38Z"/>
                    <polygon class="cls-22" points="138.51 231.79 138.66 190.75 139.33 190.75 139.18 231.79 138.51 231.79"/>
                    <path class="cls-22" d="M143.73,225.26c0,2.74-.9,5.15-2.25,6.53h-.99c1.51-1.08,2.58-3.59,2.58-6.53v-28.14c0-2.8-.97-5.22-2.37-6.38h.92c1.28,1.4,2.12,3.73,2.12,6.38v28.14Z"/>
                  </g>
                  <polygon class="cls-14" points="138.03 179.01 139.48 179.01 136.75 171.45 135.3 171.45 138.03 179.01"/>
                  <polygon class="cls-14" points="139.82 179.01 138.37 179.01 141.1 171.45 142.54 171.45 139.82 179.01"/>
                </g>
                <ellipse class="cls-17" cx="82.61" cy="314.1" rx="17.94" ry="27.36" transform="translate(-241.45 292.49) rotate(-71.45)"/>
                <g>
                  <ellipse class="cls-2" cx="96.45" cy="23.55" rx="54.18" ry="23.55"/>
                  <ellipse class="cls-27" cx="179.44" cy="56.59" rx="34.41" ry="14.96"/>
                  <path class="cls-5" d="M54.92,64.76c2.55-.31,5.11-.77,7.57-1.61,2.45-.85,4.87-1.92,7.14-3.3,2.26-1.39,4.42-3.01,6.45-4.82,2-1.84,3.88-3.86,5.62-6.02,3.47-4.33,6.39-9.18,8.86-14.28,2.44-5.11,4.48-10.46,5.92-16-.79,5.68-2.22,11.28-4.09,16.76-1.91,5.46-4.32,10.81-7.46,15.82-1.58,2.5-3.35,4.9-5.31,7.18-1.99,2.25-4.2,4.35-6.61,6.25-2.42,1.9-5.1,3.49-7.92,4.85-2.83,1.35-5.85,2.28-8.92,3l-1.25-7.82Z"/>
                  <ellipse class="cls-20" cx="6.32" cy="51.83" rx="64.19" ry="32.78"/>
                  <ellipse class="cls-1" cx="44.55" cy="86.38" rx="74.55" ry="38.07"/>
                  <ellipse class="cls-26" cx="19.23" cy="113.52" rx="33.29" ry="17"/>
                  <ellipse class="cls-10" cx="144.89" cy="78.81" rx="52.12" ry="22.22"/>
                  <path class="cls-14" d="M128.61,98.46c-1.69,5.47-3.82,10.81-6.74,15.65-5.87,9.67-14.28,17.69-23.89,23.35-9.58,5.78-20.66,8.39-31.72,12.44-3.97,1.45-7.98,3.14-11.83,5.27,.41-1.73,.8-3.46,1.15-5.19,3.07-15.64,3.97-31.26,4.63-46.81-1.52,7.64-3.06,15.27-4.91,22.8-1.89,7.51-3.93,14.95-6.56,22.11-2.63,7.12-5.74,13.98-9.43,20.39-.35,.54-.69,1.1-1.01,1.67-.7,1.13-1.41,2.24-2.15,3.34-3.86-2.7-7.38-5.94-10.15-9.83-2.97-4.09-5.17-8.82-6.51-13.86-1.38-5.03-1.92-10.35-1.84-15.69,.11-5.34,.77-10.73,2.2-15.95-2.03,5.03-3.34,10.37-4.09,15.81-.72,5.44-.83,11.04,.02,16.6,.81,5.56,2.59,11.08,5.42,16.13,2.66,4.86,6.35,9.15,10.53,12.84-1.79,2.27-3.67,4.46-5.62,6.56l-3.81,3.87-4.08,3.6c-.69,.58-1.32,1.22-2.06,1.76l-2.17,1.65-2.16,1.64c-.72,.55-1.42,1.11-2.2,1.59-3.07,2.01-5.95,3.98-9.36,6.04-3.31,2.05-6.67,4.14-10.05,6.31-3.38,2.2-6.77,4.49-10.15,6.95-3.37,2.5-6.72,5.15-9.99,8.09-3.25,2.97-6.42,6.19-9.38,9.75-2.93,3.61-5.63,7.54-7.99,11.78l25.74,12.04c1.01-2.76,2.29-5.52,3.86-8.25,1.62-2.71,3.52-5.39,5.64-8.04,2.15-2.63,4.54-5.22,7.07-7.77,2.56-2.54,5.27-5.06,8.07-7.56,2.83-2.5,5.74-5,8.7-7.53,2.93-2.44,6.09-5.35,9.15-8.12,.78-.67,1.5-1.44,2.23-2.19l2.17-2.25,2.16-2.25c.73-.73,1.37-1.58,2.05-2.37,1.34-1.6,2.69-3.19,4-4.8l3.66-5.07c4.68-6.88,8.64-14.19,11.66-21.78,.75-1.93,1.45-3.87,2.1-5.82,1.1-1.12,2.3-2.18,3.58-3.17,4.19-3.28,9.04-5.85,14.2-8.1,5.15-2.28,10.55-4.28,15.94-6.57,2.69-1.15,5.38-2.37,8.02-3.73,2.64-1.38,5.2-2.9,7.66-4.56,9.82-6.67,18.02-15.6,23.46-26.02,2.7-5.23,4.51-10.81,5.86-16.43,1.36-5.63,2.3-11.31,3.34-16.98-1.4,5.59-2.7,11.21-4.41,16.69Z"/>
                </g>
                <path class="cls-13" d="M46.93,268.39c-.91,11.73-11.49,20.47-23.63,19.53-12.14-.94-21.25-11.21-20.34-22.94s11.49-30.46,23.63-29.52c12.14,.94,21.25,21.2,20.34,32.93Z"/>
                <path class="cls-12" d="M178.72,344.72c-1.26,16.27-15.94,28.41-32.79,27.1-16.85-1.31-29.48-15.56-28.22-31.83,1.26-16.27,15.94-42.27,32.79-40.96,16.85,1.31,29.48,29.42,28.22,45.7Z"/>
                <path class="cls-12" d="M21.98,283.9c-.91,11.73-11.49,20.47-23.63,19.53s-21.25-11.21-20.34-22.94,11.49-30.46,23.63-29.52,21.25,21.2,20.34,32.93Z"/>
                <path class="cls-6" d="M145.27,339.96c-.61,7.93-7.76,13.84-15.97,13.2-8.2-.64-14.36-7.58-13.74-15.5,.61-7.93,7.76-20.59,15.97-19.95,8.2,.64,14.36,14.33,13.74,22.25Z"/>
                <path class="cls-24" d="M87.63,297.21c-.08-.84-.16-1.68-.24-2.52-6.94,.41-13.85,.16-20.66-.7,6.66-1.24,13.21-3.07,19.55-5.46-.27-.8-.54-1.59-.81-2.39-5.27,1.59-10.62,2.78-16.01,3.57,4.72-2.49,9.28-5.29,13.61-8.41-.47-.7-.94-1.4-1.41-2.1-3.44,2.14-6.99,4.07-10.61,5.82,3.19-4.77,6.03-9.78,8.47-14.98-.75-.38-1.5-.77-2.25-1.15-3.88,6.98-8.47,13.46-13.66,19.38-.07,.03-.15,.05-.22,.08,3.72-6.48,6.81-13.29,9.21-20.37-.79-.3-1.58-.59-2.36-.89-2.29,5.49-5,10.75-8.09,15.75,1.39-5.53,2.36-11.16,2.91-16.84-.83-.11-1.67-.22-2.51-.33-1.45,8.72-3.91,17.17-7.3,25.19-.14,0-.27,0-.41,0,1.3-6.92,3.25-13.75,5.87-20.38-.77-.34-1.54-.67-2.32-1.01-2.39,5.04-4.41,10.24-6.05,15.56-.86-5.71-2.14-11.36-3.85-16.88-.81,.22-1.62,.44-2.44,.67,1.6,6.76,2.55,13.62,2.87,20.47-2.37-6.35-5.29-12.48-8.74-18.32-.74,.4-1.48,.81-2.22,1.21,2.47,4.92,4.57,9.99,6.28,15.16-3.26-4.23-6.81-8.23-10.63-11.96-.61,.58-1.22,1.16-1.83,1.75,4.68,5.23,8.57,10.84,12.29,16.77,2.3,2.93,4.51,7.17,4.04,10.95-.2,1.6-.35,3.2-.48,4.81-.03,.34-.05,.69-.08,1.03,.12-.09,.23-.19,.35-.28,.4-.33,.81-.66,1.21-1,2.15-1.8,4.19-3.72,6.24-5.63,.67-.62,4.89-5.63,5.32-5.48,7.83,2.64,15.4,6.15,22.55,10.53,.46-.7,.93-1.41,1.39-2.11-4.55-3.22-9.33-6.11-14.29-8.64,5.77,.14,11.55-.15,17.29-.89Z"/>
              </g>
              <g>
                <path class="cls-14" d="M645.63,356.18c10.31-20.94,24.66-38.93,43.14-52.95,74.59-56.57,193.37-31.37,293.6,52.95h-336.74Z"/>
                <path class="cls-17" d="M540.23,356.18c14.18-10.71,29.73-19.3,46.7-25.28,55.71-19.63,117.11-8.78,174.95,25.28h-221.65Z"/>
                <path class="cls-14" d="M-151.56,356.18c56.78-64.96,130.03-96.44,194.43-74.82,35.75,12,63.78,38.73,82.73,74.82H-151.56Z"/>
                <path class="cls-17" d="M21.99,356.18c49.26-34.3,102.03-44.62,142.22-22.01,10.09,5.67,18.79,13.13,26.15,22.01H21.99Z"/>
                <path class="cls-17" d="M349.17,356.18c-36.34-16.07-74.27-17-103.64,0h103.64Z"/>
              </g>
            </g>
          </g>
        </g>
      </g>
    </g>
  </g>
</svg>