<?xml version="1.0" encoding="UTF-8"?>
<svg id="Layer_2" data-name="Layer 2" xmlns="http://www.w3.org/2000/svg" xmlns:xlink="http://www.w3.org/1999/xlink" viewBox="0 0 400 400">
  <defs>
    <style>
      .cls-1 {
        fill: #fff;
      }

      .cls-2 {
        fill: #2c3f5e;
      }

      .cls-3 {
        fill: #c41818;
      }

      .cls-4 {
        clip-path: url(#clippath);
      }

      .cls-5 {
        fill: none;
      }

      .cls-6 {
        fill: #22334c;
      }
    </style>
    <clipPath id="clippath">
      <circle class="cls-5" cx="200" cy="200" r="200"/>
    </clipPath>
  </defs>
  <g id="OBJECT">
    <g>
      <circle class="cls-3" cx="200" cy="200" r="200"/>
      <g class="cls-4">
        <g>
          <g>
            <rect class="cls-6" x="273.65" y="225.98" width="31.61" height="8.53"/>
            <g>
              <rect class="cls-6" x="281.61" y="192.66" width="17.24" height="184.9"/>
              <rect class="cls-6" x="106.86" y="192.66" width="17.24" height="184.9"/>
            </g>
            <rect class="cls-2" x="63.41" y="234.51" width="268.57" height="11.81"/>
            <rect class="cls-6" x="98.91" y="225.98" width="31.61" height="8.53"/>
          </g>
          <g>
            <path class="cls-6" d="M65.83,176.94s143.99,35.6,267.41,.16v7.55s-82.28,50.85-267.41,3.61v-11.32Z"/>
            <path class="cls-2" d="M65.83,170.05s143.99,35.6,267.41,.16v7.55s-82.28,50.85-267.41,3.61v-11.32Z"/>
          </g>
          <rect class="cls-1" x="194.24" y="201.47" width="17.5" height="36.33"/>
        </g>
        <g>
          <path class="cls-2" d="M110.83,319.92c10.03-2.48,19.91-5.92,28.01-11.5,6.64-4.57,11.89-10.42,18.31-15.21,11.23-8.36,26.18-13.58,34.17-24.28,2.44-3.26,8.75-8.59,8.75-8.59,0,0,9.85,.83,12.84,4.13s4.35,7.4,6.26,11.23c5.18,10.35,14.86,19.04,26.78,24.02,10.62,4.45,23.52,6.43,30.78,14.35,2.7,2.95,4.4,6.54,7.49,9.2,4.34,3.73,10.72,5.07,16.75,6.26,9.22,1.81,18.44,3.62,27.66,5.43,3.33,.65,6.75,1.34,9.53,3.01,1.94,1.16,3.46,2.75,4.93,4.33,9.11,9.87,16.84,20.65,22.96,32.05-30.18,10.81-59.98,22.37-89.35,34.67-13.73,5.75-27.49,11.7-42.27,15.14-13.19,3.07-26.93,4.07-40.61,4.44-39.34,1.06-81.28-3.87-111.55-25.12-14.52-10.2-33.71-32.08-25.92-49.26,3.51-7.74,13.1-13.3,19.81-18.92,10.51-8.81,20.66-11.91,34.65-15.36Z"/>
          <g>
            <path class="cls-5" d="M343.1,342.3c-1.46-1.58-2.99-3.17-4.93-4.33-2.78-1.67-6.21-2.36-9.53-3.01-9.22-1.81-18.44-3.62-27.66-5.43-6.03-1.18-12.41-2.53-16.75-6.26-3.09-2.66-4.79-6.25-7.49-9.2-3.7-4.03-8.85-6.52-14.42-8.58,.78,2.73,1.59,5.46,3.71,7.52-7.72-1.04-15.14-3.59-21.54-7.39,.61,3.89,2.04,7.69,4.21,11.16-9.79-4.24-19.92-7.92-30.31-10.98-.24,6.4-.49,12.8-.73,19.2-6.13-3.2-11.09-7.97-14.05-13.53-.72,5.12-3.09,10.07-6.8,14.16-.56-3.93-1.13-7.86-1.69-11.79-1.38,.48-2.77,.95-4.15,1.43-.98-7.85-1.47-15.75-1.45-23.65-4.1,8.73-12.23,16.05-22.28,20.06-.03-2.1-.07-4.19-.1-6.29-5.11,2.93-11.05,4.82-17.18,5.48-.04-1.31-.07-2.61-.11-3.92-6.13,3.22-12.98,5.46-20.07,6.58-5.95,2.75-12.41,4.78-18.94,6.39-14,3.45-24.14,6.55-34.65,15.36-6.72,5.63-16.3,11.18-19.81,18.92-7.79,17.18,11.4,39.06,25.92,49.26,30.26,21.26,72.21,26.19,111.55,25.12,13.67-.37,27.42-1.37,40.61-4.44,14.78-3.44,28.53-9.39,42.27-15.14,29.37-12.3,59.17-23.86,89.35-34.67-6.12-11.4-13.84-22.18-22.96-32.05Z"/>
            <path class="cls-1" d="M149.95,310.87c6.13-.66,12.06-2.55,17.18-5.48,.03,2.1,.07,4.19,.1,6.29,10.05-4.01,18.19-11.33,22.28-20.06-.02,7.9,.46,15.8,1.45,23.65,1.38-.48,2.77-.95,4.15-1.43,.56,3.93,2.16,16.29,2.72,20.22,3.16-8.92,5.88-16.37,5.77-22.6,2.96,5.55,7.92,10.33,14.05,13.53,.24-6.4,.49-12.8,.73-19.2,10.39,3.07,20.52,6.74,30.31,10.98-2.17-3.47-3.61-7.27-4.21-11.16,6.39,3.8,13.82,6.35,21.54,7.39-2.11-2.06-2.93-4.79-3.71-7.52-5.38-1.99-11.14-3.58-16.36-5.77-11.92-4.99-21.6-13.68-26.78-24.02-1.91-3.82-3.28-7.93-6.26-11.23s-12.84-4.13-12.84-4.13c0,0-6.32,5.33-8.75,8.59-7.99,10.7-22.93,15.92-34.17,24.28-6.43,4.78-11.67,10.64-18.31,15.21-2.83,1.95-5.88,3.63-9.07,5.11,7.09-1.12,13.94-3.36,20.07-6.58,.04,1.31,.07,2.61,.11,3.92Z"/>
          </g>
          <path class="cls-1" d="M168.87,342.29c1.23-3.77,3.8-7.23,7.3-9.79,1.38-1.01,2.94-1.93,3.79-3.3,1.68-2.69,1.56-8.15,.17-10.58-8.61,4.98-8.81,16.14-11.26,23.67Z"/>
          <path class="cls-1" d="M171.62,320.33c1.5-2.13,2.6-4.46,3.25-6.88,.14-.52,.26-1.06,.57-1.52,.3-.46,.77-.83,1.23-1.19,.71-.55,1.39-1.15,2.18-1.5,1.49,4.15-5.15,8.11-7.24,11.1Z"/>
          <path class="cls-1" d="M188.1,332.39c1.38-1.1,1.84-2.78,2.22-4.35l.59-2.44c.12-.5,.24-1.01,.15-1.51-.08-.44-.32-.85-.55-1.25-.89-1.59-1.61-3.24-2.17-4.93,.57,1.75-.23,4.43-.24,6.24,0,2.75,0,5.49-.01,8.24Z"/>
          <path class="cls-1" d="M246.23,318.99c1.38,.74,2.39,1.87,3.33,3,1.92,2.28,3.71,4.65,5.37,7.08-.22-.33-2.39-.71-2.9-.89-1.06-.38-2.1-.81-3.11-1.28-1.98-.93-3.85-2.05-5.55-3.31-1.71-1.26-3.26-2.68-4.61-4.22-.44-.5-1.81-1.69-1.81-2.33,0-1.22,1.17-.37,1.97-.09,2.38,.83,5.11,.86,7.32,2.05Z"/>
          <path class="cls-1" d="M258.17,318.54c-1.35-.76-1.53-7.44-5.6-5.96-3.5,1.27,4.51,5.34,5.6,5.96Z"/>
          <path class="cls-1" d="M227.83,322.16c-2.14-.31-3.84-1.64-5.41-2.9-.37-.3-.76-.63-.91-1.05-.12-.35-.06-.72-.01-1.09,.19-1.52-.07-2.99-.45-4.48,2.3,3.14,4.38,6.41,6.78,9.52Z"/>
          <path class="cls-1" d="M155.34,317.89c-1.43,1.15-3.09,2.08-4.68,3.07-2.4,1.48-4.67,3.11-6.78,4.87,.61-1.91,.94-3.88,1.26-5.84,.18-1.07,.36-2.14,.54-3.22,2.5,.23,5.07-.19,7.29-1.18,1.65-.74,3.28-1.91,5.22-1.85,.14,1.5-1.6,3.14-2.84,4.15Z"/>
          <path class="cls-1" d="M185.68,296.66l-1.71,5.8c-.09,.3-.18,.62-.4,.87-.26,.29-.65,.47-1.03,.65-3.16,1.49-5.87,3.56-8.54,5.62l-7.82,6.01c-.34-2.64-.49-5.31-.44-7.97,0-.48,.03-.98,.29-1.4,.21-.34,.55-.61,.88-.87,3.12-2.36,6.64-4.35,10.42-5.89"/>
          <path class="cls-1" d="M203.67,311.35c.56,4.04,2.89,7.89,6.44,10.63,.78,.6,1.64,1.18,2.1,1.99,.27,.49,.38,1.03,.65,1.52,1.14,2.1,4.5,2.41,6.65,3.84,2.23,1.48,2.96,4.02,3.55,6.36-.19-2.76-.37-5.52-.56-8.28-.02-.34-.05-.7-.24-1-.37-.6-1.23-.83-1.82-1.28-.88-.67-1.09-1.76-1.04-2.76s.32-1.99,.18-2.98c-.18-1.29-1-2.43-1.65-3.6-1.05-1.92-1.65-3.99-2.24-6.04"/>
          <path class="cls-6" d="M144.61,333.96c-6.56,1.64-13.53,1.49-20.36,1.18-1.42-.06-2.9-.12-4.19,.37-.97,.37-1.74,1.01-2.49,1.64-13.29,11.12-26.67,22.34-37.14,35.43-.45,.56-.91,1.18-.87,1.85,.03,.53,.37,1.01,.69,1.46,3.54,4.92,7.09,9.85,10.63,14.77,1.51,2.09,3.07,4.24,5.4,5.69s5.66,2.04,8.15,.79c-1.21-2.99,.33-6.39,2.9-8.69,2.57-2.3,6.01-3.74,9.38-5.13,4.81-1.98,9.69-3.99,14.97-4.75,3.47-3.91,3.39-9.2,4.7-13.95,1.37-4.94,4.4-9.54,8.65-13.12-5.51,3.18-10.19,7.37-13.63,12.2-1.49,2.09-2.77,4.33-4.78,6.08-3.43,2.98-9.76,3.96-13.17,.97l4.03-15.85c.48-1.87,.98-3.81,2.33-5.34,2.28-2.59,6.41-3.46,10.22-3.63,3.82-.17,7.73,.18,11.39-.73,5.82-1.45,9.92-5.77,13.33-10.01,2.54-3.14,6.1-7.65,5.09-11.64-4.7,4.59-7.7,8.51-15.25,10.4Z"/>
          <path class="cls-6" d="M100.49,327.23c-2.61,1.11-4.09,3.44-5.8,5.45-2.3,2.7-5.22,4.97-8.12,7.21-3.39,2.63-6.78,5.26-10.18,7.9,13.57-8.03,28.08-15.04,41.53-23.16-3.24-.45-4.64,.66-7.54,1.35-3.24,.77-6.78-.07-9.9,1.26Z"/>
          <path class="cls-6" d="M283.22,331.92c.82,.84,1.78,1.61,2.36,2.58,1.6,2.65-.04,5.87-2.08,8.3-2.04,2.43-4.58,4.81-4.92,7.78-5.84-10.45-26.36-9.12-32.9-19.26,.96,4.76,1.92,9.52,2.88,14.27-1.98-1.35-4.51-2.13-7.05-2.17,.79,4.09,1.57,8.17,2.36,12.26-8.16,2.96-18.26-.03-26.08,3.52-9.41,4.27-11.57,16.19-21.51,19.48-8.86,2.93-18.79-2.72-28.14-1.27-7.19,1.11-12.48,6.1-18.55,9.53-7.32,4.14-16.02,6.08-24.55,7.95,11.14,3.03,21.63,7.77,30.8,13.91,4.25,2.85,8.41,6.08,13.63,7.33,5.22,1.24,10.79,.32,16.08-.69,13.13-2.52,26.1-5.56,39.23-8.08,37.25-7.15,75.83-10.15,111.61-21.45,2.05-.65,4.17-1.36,5.66-2.72,2.03-1.85,2.53-4.51,3.03-7,2.3-11.6,6.43-22.93,12.25-33.61-3.22-2.54-7.15-4.33-11.03-6.09-10.96-4.96-21.92-9.91-32.88-14.87-7.15-3.23-14.35-6.49-22.1-8.51-5.91-1.54-13.14-3.15-19.35-2.96,.5,1.52,2.5,2.98,3.46,4.57,1.13,1.86,1.77,3.91,2.42,5.91,1.28,3.9,2.25,8.08,5.36,11.29Z"/>
          <path class="cls-6" d="M212.25,338.99c.2,2.96-.2,5.96,.53,8.85,.47,1.85,1.37,3.59,2.27,5.31,2.29,4.39,4.58,8.77,6.88,13.16-5.95,2.44-11.11,6.24-14.78,10.89-2.1-4.89-5.51-9.37-9.89-13.02-.61-.51-1.27-1.04-1.48-1.75-.2-.69,.07-1.41,.35-2.08,2.05-4.85,4.69-9.49,7.05-14.24,2.4-4.84,3.49-9.93,5.5-14.76,2.66,1.64,3.39,5.01,3.57,7.64Z"/>
          <path class="cls-6" d="M224.05,354.15c-1.46-1.37,2.24-14.4-3.9-11.55-4.67,2.17,1.91,9.69,3.9,11.55Z"/>
          <path class="cls-6" d="M287.44,356.68c.31-2.06,.61-4.13,.92-6.19,.08-.54,.16-1.1,0-1.63-.21-.75-.85-1.35-1.45-1.93-2.41-2.3-4.65-4.74-6.68-7.29-2.79-3.5-5.23-7.21-8.36-10.49-2.72-2.84-6.57-6.12-10.9-6.94,.6,2.21,5.58,5.17,7.43,7.07,2.65,2.71,5.04,5.6,7.24,8.58,4.45,6.03,8.14,12.43,11.8,18.82Z"/>
          <path class="cls-6" d="M163.94,361.42c-2.58,2.15-5.4,4.19-7.16,6.86-1.51,2.29-2.14,4.9-2.75,7.47-1.11,4.64-2.22,9.28-3.34,13.92,5.59,1.01,11.38,1.23,17.06,.63-.17-6.76-.35-13.53-.53-20.29-.03-1.06-.05-2.14,.23-3.17,.61-2.23,2.56-3.99,4.04-5.91,2.82-3.66,4.58-9.11,3.01-13.37-1.72,2.06-2.35,4.94-4.01,7.16-1.83,2.46-4.11,4.67-6.55,6.7Z"/>
          <path class="cls-6" d="M194.64,355c2.64-5.65,4.66-11.5,6.02-17.46-.63,2.77-4.94,3.5-6.16,5.98-1.66,3.38-.5,8.02,.14,11.49Z"/>
        </g>
      </g>
    </g>
  </g>
</svg>