<?xml version="1.0" encoding="UTF-8"?>
<svg id="Layer_2" data-name="Layer 2" xmlns="http://www.w3.org/2000/svg" viewBox="0 0 750 252.3">
  <defs>
    <style>
      .cls-1 {
        fill: #fdfdfd;
      }
    </style>
  </defs>
  <g id="OBJECTS">
    <g>
      <path class="cls-1" d="M726.16,15.53c-12.15-5.66-25.55-4.06-37.26,2.98-13.1,7.88-18.06,23.42-28.7,34.58-20.31,21.3-39.43-23.64-60.23-3.71-13.5,12.94-20.57,39.44-37.41,45.18-15.53,5.29-23.99-14.06-37.49-15.9-11.69-1.6-25.72,14.45-31.95,27.31-1,2.07-1.95,4.27-3.09,6.17V252.3h259.98V25.34c-8.16,.24-15.93-6.13-23.84-9.81Z"/>
      <path class="cls-1" d="M356.49,252.3v-94.2c-2.31-8.05-11.04-.4-15.63,.24-9.08,1.28-14.42-3.71-16.27-15.49-1.6-10.21-.81-22.11-4.97-30.32-5.11-10.08-16.16-11.6-26.46-10.76-10.31,.85-21.24,3.35-30.09-1.03-11.14-5.51-16.8-20.92-27.55-27.3-9.95-5.9-23.15-3.21-35.12,3.63-10.71,6.11-21.81,21.36-32.14,25.78-10.31,4.41-17.08-5.91-23.14-12.86-8-9.18-18.51-14.7-30.02-16.02-12.66-1.45-24.24,2.29-33.54-9.24-11.26-13.96-10.54-44.07-26.49-48.97-9.8-3.01-21.91,5.54-32.1,3.83C13.17,17.94,7.27,7.37,0,0V252.3H356.49Z"/>
    </g>
  </g>
</svg>