<?xml version="1.0" encoding="UTF-8"?>
<svg id="Layer_2" data-name="Layer 2" xmlns="http://www.w3.org/2000/svg" xmlns:xlink="http://www.w3.org/1999/xlink" viewBox="0 0 752.58 256.55">
  <defs>
    <style>
      .cls-1 {
        fill: url(#Degradado_sin_nombre_19);
      }

      .cls-2 {
        fill: #fdfdfd;
      }

      .cls-3 {
        fill: url(#Degradado_sin_nombre_24-2);
      }

      .cls-4 {
        fill: url(#Degradado_sin_nombre_24);
      }

      .cls-5 {
        fill: url(#Degradado_sin_nombre_333);
      }
    </style>
    <linearGradient id="Degradado_sin_nombre_19" data-name="Degradado sin nombre 19" x1="376.29" y1="187.3" x2="376.29" y2=".79" gradientUnits="userSpaceOnUse">
      <stop offset=".34" stop-color="#fff"/>
      <stop offset="1" stop-color="#74b8ed"/>
    </linearGradient>
    <linearGradient id="Degradado_sin_nombre_24" data-name="Degradado sin nombre 24" x1="376.29" y1="286.87" x2="376.29" y2="46.52" gradientTransform="translate(752.58) rotate(-180) scale(1 -1)" gradientUnits="userSpaceOnUse">
      <stop offset=".33" stop-color="#fff"/>
      <stop offset="1" stop-color="#64aada"/>
    </linearGradient>
    <linearGradient id="Degradado_sin_nombre_24-2" data-name="Degradado sin nombre 24" y1="256.28" y2="94.03" gradientTransform="matrix(1, 0, 0, 1, 0, 0)" xlink:href="#Degradado_sin_nombre_24"/>
    <linearGradient id="Degradado_sin_nombre_333" data-name="Degradado sin nombre 333" x1="376.29" y1="374.11" x2="376.29" y2="129.16" gradientTransform="translate(752.58) rotate(-180) scale(1 -1)" gradientUnits="userSpaceOnUse">
      <stop offset="0" stop-color="#44408d"/>
      <stop offset="1" stop-color="#1c7eb6"/>
    </linearGradient>
  </defs>
  <g id="OBJECTS">
    <g id="Mountain">
      <g>
        <path class="cls-1" d="M673.22,100.85c-25.18-2.52-103.02-7.3-127.41-14.36v-.05c-.34-.08-.67-.16-1-.24-53.85-15.73-105.4-42.64-153.11-81.16-2.99-3.86-8.92-4.6-15.41-4.12-6.48-.48-12.42,.27-15.41,4.12-47.7,38.52-99.26,65.42-153.11,81.16-.33,.08-.67,.16-1,.24v.05c-24.39,7.06-102.23,11.84-127.41,14.36v86.45H673.22V100.85Z"/>
        <path class="cls-2" d="M338.33,28.65c8.87-12.08,17.32-10.27,12.36,6.06,15.55-1.43-2.5-7.96,27.6-15.32,3.13-7.04,17.15,10.97,26.48,15.79,5.95,1.57-9.71-10.34-1.17-9.81,10.68,.96,15.51,13.74,15.75,1.07-2.47-2.22-4.78-4.35-6.94-6.38-6.98-5.04-13.89-10.3-20.71-15.82-2.99-3.86-8.92-4.6-15.41-4.12-6.48-.48-12.42,.27-15.41,4.12-6.85,5.53-13.78,10.82-20.79,15.87-1.89,1.79-3.87,3.66-5.97,5.61,6.45-5.5-2.81,8.78,4.21,2.92Z"/>
      </g>
      <path class="cls-4" d="M1.29,256.55V47.83c2.46-.49,4.64-.88,7.2-1.09,13.69-1.14,28.82,2.3,39.64,10.47,12.2,9.21,20.85,17.83,37.56,17.49,7.26-.15,14.51-1.98,21.72-1.05,10.36,1.34,17.63,8.35,26.8,12.56,14.98,6.86,32.44,9.34,48.48,4.98,18.21-4.95,29.79-20.31,49.47-19.8,12.1,.32,22,6.91,34,7.95,11.57,1.01,22.48-3.25,33.6-5.62,15.62-3.32,32.83-2.38,47.88,1.75,16.83,4.62,23.21,13.73,36.88,20.27,23.72,11.35,48.17-9.27,72.56-4.7,7.19,1.35,14.32,3.56,21.63,3.33,14.51-.47,19.57-14.44,31.86-19.63,9.8-4.14,22.67-2.84,33.74-.48,11.07,2.36,22.17,5.67,33.77,5.12,14.61-.7,27.22-7.43,41.75-8.64,13.45-1.12,26.97,2.72,37.43,8.42,9.35,5.1,15.4,14.89,25.03,19.06,9.62,4.17,21.35,.21,30.92-2.17,12.17-3.03,25.22-3.88,38.08-2.61v163.11H1.29Z"/>
      <path class="cls-3" d="M751.29,235.81V95.17c-2.46-.44-4.64-.78-7.2-.97-13.45-.99-26.97,2.41-37.43,7.46-9.35,4.52-15.4,13.19-25.03,16.89-9.62,3.69-21.35,.19-30.92-1.92-12.63-2.79-26.55-3.51-39.85-2.19-14.63,1.45-25.92,5.05-40.96,1.43-18.21-4.39-29.79-18-49.47-17.54-12.1,.28-22,6.12-34,7.05-11.57,.89-22.48-2.88-33.6-4.98-15.62-2.94-32.83-2.11-47.88,1.55-16.83,4.09-23.21,12.17-36.88,17.97-23.72,10.06-48.17-8.22-72.56-4.16-7.19,1.2-14.32,3.16-21.63,2.95-14.51-.42-19.57-12.8-31.86-17.39-9.8-3.67-22.67-2.52-33.74-.43-11.07,2.09-22.17,5.03-33.77,4.53-14.61-.62-27.22-6.58-41.75-7.66-13.45-.99-26.97,2.41-37.43,7.46-9.35,4.52-15.4,13.19-25.03,16.89-9.62,3.69-21.35,.19-30.92-1.92-12.17-2.69-25.22-3.44-38.08-2.31v117.95H751.29Z"/>
      <path class="cls-5" d="M752.58,138.96c-1.71-.12-3.5-.12-5.39,.06-9.23,.85-17.64,5.99-26.9,6.13-16.85,.26-28.83-15.73-45.67-15.92-9.88-.11-18.78,5.31-26.24,11.05-7.45,5.74-14.65,12.23-24.02,15.15-16.35,5.1-30.85-9.44-47.83-9.48-20-.05-35.96,10.83-47.37,24.36-8.5,11.42-14.18-1.11-21.81-6.13-11.15-7.33-24.58-6.87-37.67-3.06-10.83,3.15-18.29,11.73-30.85,10.86-5.14-.36-10.06-1.7-15.14-2.39-14.7-2.02-29.6,1.4-44.39,2.99-18.09,1.95-32.21-.51-45.06-10.23-11.82-8.94-22.67-18.91-41.07-18.51-11.34,.25-21.83,4.84-33.18,4.38-20.67-.85-34.79-17.67-55.43-18.97-12.1-.76-23.21,4.09-32.54,9.36-9.33,5.26-18.38,11.3-29.97,13.61-20.22,4.04-37.49-11.5-58.3-12.65-24.52-1.36-44.45,8.5-58.91,21.31-13.01,13.1-9.53-3.62-24.85-11.47v107.16H752.58v-117.59Z"/>
    </g>
  </g>
</svg>