<?xml version="1.0" encoding="UTF-8"?>
<svg id="Layer_2" data-name="Layer 2" xmlns="http://www.w3.org/2000/svg" xmlns:xlink="http://www.w3.org/1999/xlink" viewBox="0 0 646.94 175.64">
  <defs>
    <style>
      .cls-1 {
        fill: url(#Degradado_sin_nombre_21);
      }

      .cls-2 {
        fill: url(#Degradado_sin_nombre_21-6);
      }

      .cls-3 {
        fill: url(#Degradado_sin_nombre_21-2);
      }

      .cls-4 {
        fill: url(#Degradado_sin_nombre_21-4);
      }

      .cls-5 {
        fill: url(#Degradado_sin_nombre_21-3);
      }

      .cls-6 {
        fill: url(#Degradado_sin_nombre_21-5);
      }
    </style>
    <linearGradient id="Degradado_sin_nombre_21" data-name="Degradado sin nombre 21" x1="163.29" y1="18.96" x2="163.29" y2="0" gradientTransform="translate(734.03) rotate(-180) scale(1 -1)" gradientUnits="userSpaceOnUse">
      <stop offset="0" stop-color="#fdfdfd" stop-opacity=".24"/>
      <stop offset=".04" stop-color="#fdfdfd" stop-opacity=".28"/>
      <stop offset=".3" stop-color="#fdfdfd" stop-opacity=".59"/>
      <stop offset=".52" stop-color="#fdfdfd" stop-opacity=".81"/>
      <stop offset=".68" stop-color="#fdfdfd" stop-opacity=".95"/>
      <stop offset=".77" stop-color="#fdfdfd"/>
    </linearGradient>
    <linearGradient id="Degradado_sin_nombre_21-2" data-name="Degradado sin nombre 21" x1="-1766.25" y1="69.25" x2="-1766.25" y2="54.37" gradientTransform="translate(1948.26)" xlink:href="#Degradado_sin_nombre_21"/>
    <linearGradient id="Degradado_sin_nombre_21-3" data-name="Degradado sin nombre 21" x1="227.72" y1="56.58" x2="227.72" y2="20.39" xlink:href="#Degradado_sin_nombre_21"/>
    <linearGradient id="Degradado_sin_nombre_21-4" data-name="Degradado sin nombre 21" x1="623.59" y1="54.37" x2="623.59" y2="25.95" xlink:href="#Degradado_sin_nombre_21"/>
    <linearGradient id="Degradado_sin_nombre_21-5" data-name="Degradado sin nombre 21" x1="587.13" y1="175.64" x2="587.13" y2="139.46" xlink:href="#Degradado_sin_nombre_21"/>
    <linearGradient id="Degradado_sin_nombre_21-6" data-name="Degradado sin nombre 21" x1="-2088.32" y1="148.42" x2="-2088.32" y2="127.31" gradientTransform="translate(2323.75)" xlink:href="#Degradado_sin_nombre_21"/>
  </defs>
  <g id="OBJECTS">
    <g>
      <path class="cls-1" d="M638.77,18.67c-4.17-2.09-6.69-7.71-10.1-10.84-5.26-4.85-13.16-7.32-20.92-7.03-8.58,.34-13.48,5.08-20.37,7.52-12.3,4.73-19.37-13.16-32.29-7.01-7.88,4-11.65,13.03-20.03,14.85-7.63,1.76-12.83-4.59-20.21-4.62-4.84,0-9.44,3.33-12.16,7.13,0,0,135.54,.66,136.07,0Z"/>
      <path class="cls-3" d="M128.58,69.02c3.27-1.64,5.25-6.05,7.93-8.51,4.13-3.81,10.33-5.75,16.43-5.52,6.74,.27,10.58,3.99,15.99,5.9,9.66,3.72,15.21-10.34,25.35-5.5,6.19,3.14,9.15,10.23,15.73,11.66,5.99,1.38,10.07-3.61,15.87-3.63,3.8,0,7.41,2.61,9.55,5.6,0,0-106.43,.52-106.85,0Z"/>
      <path class="cls-5" d="M390.6,43.67c2.41-.41,4.86-.37,7.2,.3,3.06,.87,5.72,2.74,8.66,3.95,6.46,2.65,12.61-1.11,16.68-6.17,10.11-12.54,17.13-26.08,35.84-19.74,7.92,2.68,15.22,7.46,23.51,8.54,19.44,2.53,38.92-15.72,57.11-8.41,13.8,5.55,19.7,23.68,33.88,28.2,9.01,2.87,18.65-.68,27.62-3.69,9.99-3.36,17.6-3.8,27.55-.74,5.98,1.84,12.13,7.56,18.29,10.68H365.67c1.36,.08,15.18-9.18,18.93-10.97,1.89-.9,3.92-1.59,5.99-1.94Z"/>
      <path class="cls-4" d="M19.57,44.23c1.89-.32,3.82-.29,5.66,.23,2.4,.68,4.49,2.15,6.8,3.1,5.08,2.08,9.9-.87,13.1-4.84,7.94-9.85,13.45-20.48,28.14-15.5,6.22,2.11,11.95,5.86,18.46,6.7,15.27,1.99,30.56-12.35,44.85-6.6,10.84,4.36,15.47,18.6,26.6,22.14,7.08,2.25,14.65-.53,21.69-2.9,7.85-2.64,13.82-2.98,21.63-.58,4.7,1.44,9.53,5.94,14.36,8.39H0c1.06,.06,11.92-7.21,14.87-8.61,1.49-.71,3.08-1.25,4.71-1.52Z"/>
      <path class="cls-6" d="M31.18,162.73c2.41-.41,4.86-.37,7.2,.3,3.06,.87,5.72,2.74,8.66,3.95,6.46,2.65,12.61-1.11,16.68-6.17,10.11-12.54,17.13-26.08,35.84-19.74,7.92,2.68,15.22,7.46,23.51,8.54,19.44,2.53,38.92-15.72,57.11-8.41,13.8,5.55,19.7,23.68,33.88,28.2,9.01,2.87,18.65-.68,27.62-3.69,9.99-3.36,17.6-3.8,27.55-.74,5.98,1.84,12.13,7.56,18.29,10.68H6.26c1.36,.08,15.18-9.18,18.93-10.97,1.89-.9,3.92-1.59,5.99-1.94Z"/>
      <path class="cls-2" d="M302.94,140.89c-1.4-.24-2.84-.22-4.2,.17-1.78,.51-3.34,1.6-5.05,2.3-3.77,1.55-7.35-.65-9.73-3.6-5.9-7.32-9.99-15.22-20.91-11.52-4.62,1.57-8.88,4.35-13.72,4.98-11.34,1.48-22.71-9.17-33.32-4.91-8.05,3.24-11.5,13.82-19.77,16.45-5.26,1.67-10.88-.4-16.12-2.15-5.83-1.96-10.27-2.22-16.07-.43-3.49,1.07-7.08,4.41-10.67,6.23h164.11c-.79,.05-8.85-5.35-11.05-6.4-1.1-.53-2.29-.93-3.5-1.13Z"/>
    </g>
  </g>
</svg>