<?xml version="1.0" encoding="UTF-8"?>
<svg xmlns="http://www.w3.org/2000/svg" xmlns:xlink="http://www.w3.org/1999/xlink" viewBox="0 0 750 296.31">
  <defs>
    <style>
      .cls-1 {
        fill: url(#Degradado_sin_nombre_14-3);
      }

      .cls-2 {
        fill: url(#Degradado_sin_nombre_13);
      }

      .cls-3 {
        fill: url(#Degradado_sin_nombre_28);
      }

      .cls-4 {
        fill: url(#Degradado_sin_nombre_15-2);
      }

      .cls-5 {
        fill: #252577;
      }

      .cls-6 {
        fill: url(#Degradado_sin_nombre_28-3);
      }

      .cls-7 {
        fill: url(#Degradado_sin_nombre_34-3);
      }

      .cls-8 {
        fill: url(#Degradado_sin_nombre_15);
      }

      .cls-9 {
        isolation: isolate;
      }

      .cls-10 {
        fill: url(#Degradado_sin_nombre_12-2);
      }

      .cls-11 {
        fill: url(#Degradado_sin_nombre_34);
      }

      .cls-12 {
        fill: #454a68;
      }

      .cls-13 {
        fill: url(#Degradado_sin_nombre_28-2);
      }

      .cls-14 {
        fill: #272747;
      }

      .cls-15 {
        fill: url(#Degradado_sin_nombre_19);
      }

      .cls-16 {
        fill: url(#Degradado_sin_nombre_14);
      }

      .cls-17 {
        fill: #323654;
      }

      .cls-18 {
        clip-path: url(#clippath);
      }

      .cls-19 {
        fill: none;
      }

      .cls-20 {
        fill: url(#Degradado_sin_nombre_13-2);
      }

      .cls-21 {
        fill: url(#Degradado_sin_nombre_4);
      }

      .cls-22 {
        fill: #d35e67;
        mix-blend-mode: multiply;
        opacity: .6;
      }

      .cls-23 {
        fill: url(#Degradado_sin_nombre_34-2);
      }

      .cls-24 {
        fill: url(#Degradado_sin_nombre_19-2);
      }

      .cls-25 {
        fill: url(#Degradado_sin_nombre_23);
      }

      .cls-26 {
        fill: url(#Degradado_sin_nombre_12);
      }

      .cls-27 {
        fill: url(#Degradado_sin_nombre_14-2);
      }
    </style>
    <clipPath id="clippath">
      <rect class="cls-19" width="750" height="296.31"/>
    </clipPath>
    <linearGradient id="Degradado_sin_nombre_23" data-name="Degradado sin nombre 23" x1="646.49" y1="417.14" x2="646.49" y2="198.26" gradientTransform="translate(1190.34 -133.57) rotate(167.82) scale(1 -1)" gradientUnits="userSpaceOnUse">
      <stop offset=".36" stop-color="#1c7eb6"/>
      <stop offset="1" stop-color="#44408d"/>
    </linearGradient>
    <linearGradient id="Degradado_sin_nombre_19" data-name="Degradado sin nombre 19" x1="647.82" y1="301.08" x2="695.14" y2="254.33" gradientTransform="translate(56.98 511.12) rotate(-45.35)" gradientUnits="userSpaceOnUse">
      <stop offset=".34" stop-color="#fff"/>
      <stop offset="1" stop-color="#74b8ed"/>
    </linearGradient>
    <linearGradient id="Degradado_sin_nombre_15" data-name="Degradado sin nombre 15" x1="566.64" y1="253.57" x2="603.97" y2="216.69" gradientTransform="translate(35.64 73.08) rotate(-4.62)" gradientUnits="userSpaceOnUse">
      <stop offset="0" stop-color="#84bcea"/>
      <stop offset="1" stop-color="#1c92da"/>
    </linearGradient>
    <linearGradient id="Degradado_sin_nombre_15-2" data-name="Degradado sin nombre 15" x1="-50.46" y1="234.54" x2="-50.46" y2="208.85" gradientTransform="translate(821.2 -245.66) rotate(4.43) scale(1 2.27)" xlink:href="#Degradado_sin_nombre_15"/>
    <linearGradient id="Degradado_sin_nombre_28" data-name="Degradado sin nombre 28" x1="-164.9" y1="249.98" x2="-164.9" y2="228.77" gradientTransform="translate(821.2 -245.66) rotate(4.43) scale(1 2.27)" gradientUnits="userSpaceOnUse">
      <stop offset="0" stop-color="#fff"/>
      <stop offset="1" stop-color="#74b8ed"/>
    </linearGradient>
    <linearGradient id="Degradado_sin_nombre_14" data-name="Degradado sin nombre 14" x1="-731.33" y1="244.8" x2="-731.33" y2="213.37" gradientTransform="translate(296.62 1010.57) rotate(98.02) scale(1 1.54)" gradientUnits="userSpaceOnUse">
      <stop offset="0" stop-color="#44408d"/>
      <stop offset="1" stop-color="#1c7eb6"/>
    </linearGradient>
    <linearGradient id="Degradado_sin_nombre_34" data-name="Degradado sin nombre 34" x1="-2042.32" y1="-3505.84" x2="-2042.83" y2="-3489.73" gradientTransform="translate(-485.16 2597.59) rotate(139.26) scale(1 -.42)" gradientUnits="userSpaceOnUse">
      <stop offset="0" stop-color="#fb9898"/>
      <stop offset="1" stop-color="#e38776"/>
    </linearGradient>
    <linearGradient id="Degradado_sin_nombre_34-2" data-name="Degradado sin nombre 34" x1="272.2" y1="169.29" x2="211.95" y2="229.54" gradientTransform="translate(-147.51 398.83) scale(1 -1)" xlink:href="#Degradado_sin_nombre_34"/>
    <linearGradient id="Degradado_sin_nombre_34-3" data-name="Degradado sin nombre 34" x1="233.97" y1="131.06" x2="204.53" y2="160.5" gradientTransform="translate(-101.85 291.56) scale(1 -1)" xlink:href="#Degradado_sin_nombre_34"/>
    <linearGradient id="Degradado_sin_nombre_4" data-name="Degradado sin nombre 4" x1="210.06" y1="163.36" x2="185.39" y2="188.03" gradientTransform="translate(-58.8 351.39) scale(1 -1)" gradientUnits="userSpaceOnUse">
      <stop offset="0" stop-color="#ff977c"/>
      <stop offset=".1" stop-color="#ff8974"/>
      <stop offset=".29" stop-color="#ff6761"/>
      <stop offset=".4" stop-color="#ff4e53"/>
      <stop offset=".52" stop-color="#f14550"/>
      <stop offset=".75" stop-color="#ce2f49"/>
      <stop offset="1" stop-color="#a11241"/>
    </linearGradient>
    <linearGradient id="Degradado_sin_nombre_13" data-name="Degradado sin nombre 13" x1="-691.11" y1="39.19" x2="-691.11" y2="0" gradientTransform="translate(787.56)" gradientUnits="userSpaceOnUse">
      <stop offset="0" stop-color="#1c7eb6"/>
      <stop offset="1" stop-color="#64aada"/>
    </linearGradient>
    <linearGradient id="Degradado_sin_nombre_14-2" data-name="Degradado sin nombre 14" x1="-608.12" y1="59.52" x2="-608.12" y2="34.64" gradientTransform="translate(787.56)" xlink:href="#Degradado_sin_nombre_14"/>
    <linearGradient id="Degradado_sin_nombre_13-2" data-name="Degradado sin nombre 13" x1="-781.23" y1="70.38" x2="-781.23" y2="15.85" xlink:href="#Degradado_sin_nombre_13"/>
    <linearGradient id="Degradado_sin_nombre_14-3" data-name="Degradado sin nombre 14" x1="-743.01" y1="103.53" x2="-743.01" y2="40.19" gradientTransform="translate(787.56)" xlink:href="#Degradado_sin_nombre_14"/>
    <linearGradient id="Degradado_sin_nombre_12" data-name="Degradado sin nombre 12" x1="-768.33" y1="108.58" x2="-768.33" y2="80.29" gradientTransform="translate(787.56)" gradientUnits="userSpaceOnUse">
      <stop offset="0" stop-color="#2d89bf"/>
      <stop offset="1" stop-color="#64baec"/>
    </linearGradient>
    <linearGradient id="Degradado_sin_nombre_12-2" data-name="Degradado sin nombre 12" x1="-642.67" y1="84.05" x2="-642.67" y2="47.08" xlink:href="#Degradado_sin_nombre_12"/>
    <linearGradient id="Degradado_sin_nombre_28-2" data-name="Degradado sin nombre 28" x1="-757.73" y1="240.71" x2="-757.73" y2="221.39" xlink:href="#Degradado_sin_nombre_28"/>
    <linearGradient id="Degradado_sin_nombre_28-3" data-name="Degradado sin nombre 28" x1="-647.93" y1="260.97" x2="-647.93" y2="247.91" xlink:href="#Degradado_sin_nombre_28"/>
    <linearGradient id="Degradado_sin_nombre_19-2" data-name="Degradado sin nombre 19" x1="59.71" y1="258.47" x2="59.71" y2="221.02" gradientTransform="matrix(1, 0, 0, 1, 0, 0)" xlink:href="#Degradado_sin_nombre_19"/>
  </defs>
  <g class="cls-9">
    <g id="Layer_2" data-name="Layer 2">
      <g id="OBJECTS">
        <g id="Vegetation_Front" data-name="Vegetation Front">
          <g class="cls-18">
            <g id="Bottom_Vegetation_Front" data-name="Bottom Vegetation Front">
              <g>
                <path class="cls-25" d="M760,184.18c-3.82-11.52-14.08-19.17-23.17-17.08-6.23,1.43-10.19,7.07-10.83,14.19-.18-.13-.35-.26-.54-.39-10.39-7.07-22.74-8.81-27.58-3.89-4.85,4.93-.35,14.65,10.03,21.73,.19,.13,.38,.24,.57,.37-3.49,.37-6.53,1.65-8.5,3.87-4.45,4.99-1.99,12.88,5.43,18.23-10.28-2.14-19.32-1.1-20.53,2.47-.94,2.78,3.15,6.31,9.79,8.98-3.77,1.21-6.92,4.59-8.42,9.01-1.08-1.26-2.42-2.33-4.05-3.12-2.51-1.23-5.38-1.67-8.33-1.44,.44-.42,.87-.85,1.28-1.3,5.81-6.44,6.27-14.31,1.03-17.58-5.22-3.26-14.12-.72-19.93,5.67-4.56-9.63-13.84-15.65-22.02-13.78-6.05,1.39-9.94,6.75-10.75,13.57-2.35-2.48-5.49-4.07-9.03-4.23-7.96-.37-14.9,6.55-15.49,15.46-.04,.64-.04,1.26-.02,1.88-6.96-3.04-14.41-2.77-17.76,.98-3.13,3.51-1.73,8.99,2.96,13.49-1.86,.06-3.67,.4-5.36,1.09-1.93,.79-3.52,1.95-4.78,3.37-.19-2.1-.73-4.29-1.67-6.49-3.89-9.03-13-14.58-20.35-12.39-6.58,1.96-9.5,9.46-7.25,17.49-10.91-1.13-20.43,2.01-22.83,8.15-1.91,4.9,1.22,10.47,7.45,14.76-7.94-1.84-15.32-.49-17.74,3.67-2.59,4.46,1.39,10.64,9.03,14.69-8.21,.71-14.51,4.64-14.61,9.49-.08,3.81,3.69,7.16,9.28,8.89-4.85,2.61-7.5,6.24-6.05,8.71,.78,1.33,2.61,2.08,4.97,2.25-1.58,2.71-2.24,6.13-1.9,9.86-2.83-2.11-6.25-3.21-9.77-2.86-7.92,.78-13.3,8.6-12.03,17.46,.09,.63,.22,1.25,.37,1.86-7.49-1.99-14.77-.65-17.29,3.53-2.93,4.87,1.7,11.74,10.35,15.35l3.15,15.85h272.9V184.18Z"/>
                <g>
                  <path class="cls-15" d="M764.1,212.62c-1.02-.69-2.03-1.38-3.05-2.07-7.14,6.78-14.99,12.93-23.4,18.42,5.92-7.28,11.07-14.97,15.36-23.01-1.18-.48-2.36-.95-3.54-1.43-4.01,6.31-8.55,12.33-13.58,18.02,2.42-6.62,4.29-13.38,5.58-20.23-1.29-.2-2.58-.41-3.87-.61-1.4,5.13-3.14,10.16-5.18,15.09-1.8-7.29-4.24-14.47-7.33-21.46-1.25,.34-2.49,.68-3.74,1.03,3.49,9.93,5.66,20.08,6.53,30.26-.05,.09-.1,.18-.15,.28-3.11-9.33-7.28-18.4-12.49-27.06-1.19,.46-2.38,.91-3.58,1.37,3.59,7.11,6.44,14.41,8.61,21.82-4.61-6.32-9.79-12.35-15.48-18.03-1.04,.67-2.07,1.34-3.11,2.01,8.09,9.28,14.76,19.26,19.94,29.69-.15,.13-.29,.25-.44,.38-6.25-7.5-11.69-15.52-16.18-23.98-1.22,.41-2.44,.81-3.65,1.22,2.96,6.8,6.52,13.4,10.63,19.76-7.28-4.41-14.94-8.37-22.93-11.83-.64,.95-1.29,1.9-1.93,2.85,9.25,4.69,17.89,10.06,25.84,16.01-9.64-3.6-19.64-6.49-29.89-8.63-.36,1.05-.72,2.1-1.08,3.15,8.16,2.2,16.08,4.89,23.68,8.02-8.26-.84-16.58-1.21-24.91-1.09-.02,1.09-.04,2.18-.06,3.28,10.92,.45,21.41,1.98,32.05,3.94,5.77,.54,12.89,2.37,16.57,6.25,1.55,1.64,3.16,3.24,4.8,4.82,.35,.34,.7,.67,1.06,1.01,.02-.19,.05-.38,.07-.58,.08-.67,.15-1.35,.21-2.02,.36-3.62,.47-7.25,.6-10.88,.04-1.18-.88-9.64-.26-9.9,11.5-4.81,23.69-8.6,36.37-11.21-.27-1.07-.54-2.14-.81-3.2-8.56,1.26-16.99,3.04-25.23,5.31,6.48-5.2,12.48-10.8,17.95-16.76Z"/>
                  <path class="cls-8" d="M668.47,267.02c-.17-.79-.33-1.58-.5-2.37-7.88,.92-15.8,1.22-23.65,.92,7.49-1.69,14.79-3.92,21.82-6.68-.38-.74-.77-1.47-1.15-2.21-5.87,1.92-11.87,3.46-17.95,4.62,5.16-2.72,10.1-5.74,14.77-9.04-.6-.63-1.2-1.26-1.8-1.89-3.73,2.3-7.61,4.41-11.58,6.34,3.2-4.78,5.98-9.75,8.29-14.88-.89-.31-1.78-.61-2.67-.92-3.78,6.93-8.43,13.44-13.81,19.46-.08,.03-.16,.06-.24,.1,3.65-6.44,6.56-13.15,8.64-20.05-.93-.22-1.85-.44-2.78-.66-2.1,5.39-4.72,10.6-7.79,15.58,1.07-5.36,1.67-10.78,1.77-16.22-.96-.04-1.93-.08-2.89-.12-.85,8.4-2.88,16.61-6.01,24.49-.15,.01-.31,.02-.46,.04,.84-6.67,2.44-13.31,4.82-19.81-.91-.26-1.83-.52-2.74-.78-2.27,4.97-4.09,10.06-5.47,15.25-1.51-5.36-3.49-10.62-5.95-15.74-.91,.27-1.81,.55-2.72,.82,2.45,6.3,4.16,12.74,5.16,19.22-3.29-5.85-7.19-11.45-11.67-16.73-.81,.44-1.61,.88-2.42,1.32,3.28,4.48,6.14,9.13,8.56,13.91-4.12-3.76-8.53-7.29-13.24-10.55-.64,.6-1.28,1.2-1.92,1.8,5.82,4.61,10.78,9.64,15.58,14.98,2.9,2.6,5.81,6.46,5.63,10.09-.08,1.53-.11,3.07-.11,4.6,0,.33,0,.66,0,.98,.12-.1,.25-.19,.37-.29,.43-.34,.86-.69,1.28-1.04,2.29-1.87,4.45-3.85,6.61-5.82,.7-.64,5.06-5.72,5.56-5.62,9.18,1.91,18.15,4.66,26.72,8.27,.46-.7,.93-1.41,1.39-2.11-5.49-2.71-11.21-5.09-17.11-7.11,6.61-.31,13.18-1.03,19.66-2.17Z"/>
                  <path class="cls-4" d="M760.86,258.65c-1.21,12.98-15.28,22.65-31.43,21.61-16.15-1.04-28.26-12.41-27.05-25.39s15.28-33.71,31.43-32.67c16.15,1.04,28.26,23.46,27.05,36.44Z"/>
                  <path class="cls-3" d="M638.63,288.46c-1,10.71-12.61,18.69-25.94,17.83-13.33-.86-23.32-10.24-22.32-20.95,1-10.71,12.61-27.81,25.94-26.95,13.33,.86,23.32,19.36,22.32,30.07Z"/>
                </g>
              </g>
              <g>
                <ellipse class="cls-16" cx="49.71" cy="237.28" rx="23.7" ry="41.34" transform="translate(-191.42 212.16) rotate(-72.22)"/>
                <g>
                  <rect class="cls-14" x="138.24" y="148.92" width="1.36" height="7.77" transform="translate(277.85 305.61) rotate(180)"/>
                  <g>
                    <polygon class="cls-11" points="95.65 170.66 126.52 148.54 124.46 146.55 93.59 168.67 95.65 170.66"/>
                    <rect class="cls-23" x="91.1" y="142.63" width="6.93" height="113.56" transform="translate(189.14 398.83) rotate(180)"/>
                    <rect class="cls-7" x="91.1" y="142.63" width="52.58" height="6.29" transform="translate(234.79 291.56) rotate(180)"/>
                  </g>
                  <g>
                    <rect class="cls-21" x="126.38" y="158.53" width="25.08" height="34.32" rx="8.58" ry="8.58" transform="translate(277.85 351.39) rotate(180)"/>
                    <rect class="cls-14" x="134.37" y="155.89" width="9.1" height="2.62" transform="translate(277.85 314.39) rotate(180)"/>
                    <rect class="cls-14" x="134.37" y="192.85" width="9.1" height="2.62" transform="translate(277.85 388.33) rotate(180)"/>
                    <path class="cls-22" d="M144.71,192.83h-1.44c2.55-.9,4.35-2.99,4.35-5.43v-23.41c0-2.33-1.64-4.35-4.01-5.3h1.33c2.02,1.17,3.34,3.11,3.34,5.3v23.41c0,2.28-1.43,4.28-3.57,5.43Z"/>
                    <path class="cls-22" d="M130.23,163.99v23.41c0,2.44,1.8,4.54,4.35,5.43h-1.44c-2.15-1.15-3.57-3.15-3.57-5.43v-23.41c0-2.2,1.33-4.14,3.34-5.3h1.33c-2.37,.96-4.01,2.97-4.01,5.3Z"/>
                    <path class="cls-22" d="M134.78,163.99v23.41c0,2.44,1.06,4.53,2.57,5.43h-.98c-1.35-1.15-2.25-3.15-2.25-5.43v-23.41c0-2.2,.84-4.14,2.12-5.3h.92c-1.4,.96-2.37,2.98-2.37,5.3Z"/>
                    <polygon class="cls-22" points="138.51 192.83 138.66 158.68 139.33 158.68 139.18 192.83 138.51 192.83"/>
                    <path class="cls-22" d="M143.73,187.4c0,2.28-.9,4.28-2.25,5.43h-.99c1.51-.9,2.58-2.99,2.58-5.43v-23.41c0-2.33-.97-4.34-2.37-5.3h.92c1.28,1.17,2.12,3.1,2.12,5.3v23.41Z"/>
                  </g>
                  <polygon class="cls-14" points="138.03 148.92 139.48 148.92 136.75 142.63 135.3 142.63 138.03 148.92"/>
                  <polygon class="cls-14" points="139.82 148.92 138.37 148.92 141.1 142.63 142.54 142.63 139.82 148.92"/>
                </g>
                <ellipse class="cls-17" cx="82.61" cy="261.3" rx="15.12" ry="27.01" transform="translate(-190.44 284.65) rotate(-77.34)"/>
                <g>
                  <ellipse class="cls-2" cx="96.45" cy="19.59" rx="54.18" ry="19.59"/>
                  <ellipse class="cls-27" cx="179.44" cy="47.08" rx="34.41" ry="12.44"/>
                  <path class="cls-5" d="M54.92,53.87c2.55-.26,5.11-.64,7.57-1.34,2.45-.71,4.87-1.59,7.14-2.75,2.26-1.16,4.42-2.5,6.45-4.01,2-1.53,3.88-3.21,5.62-5,3.47-3.6,6.39-7.64,8.86-11.88,2.44-4.25,4.48-8.7,5.92-13.31-.79,4.72-2.22,9.39-4.09,13.94-1.91,4.55-4.32,8.99-7.46,13.16-1.58,2.08-3.35,4.08-5.31,5.97-1.99,1.87-4.2,3.62-6.61,5.2-2.42,1.58-5.1,2.9-7.92,4.03-2.83,1.12-5.85,1.89-8.92,2.5l-1.25-6.51Z"/>
                  <ellipse class="cls-20" cx="6.32" cy="43.11" rx="64.19" ry="27.27"/>
                  <ellipse class="cls-1" cx="44.55" cy="71.86" rx="74.55" ry="31.67"/>
                  <ellipse class="cls-26" cx="19.23" cy="94.44" rx="33.29" ry="14.14"/>
                  <ellipse class="cls-10" cx="144.89" cy="65.56" rx="52.12" ry="18.48"/>
                  <path class="cls-14" d="M128.61,81.91c-1.69,4.55-3.82,8.99-6.74,13.02-5.87,8.05-14.28,14.71-23.89,19.42-9.58,4.81-20.66,6.98-31.72,10.35-3.97,1.2-7.98,2.61-11.83,4.38,.41-1.44,.8-2.88,1.15-4.32,3.07-13.01,3.97-26,4.63-38.94-1.52,6.36-3.06,12.71-4.91,18.97-1.89,6.25-3.93,12.44-6.56,18.39-2.63,5.93-5.74,11.63-9.43,16.96-.35,.45-.69,.91-1.01,1.39-.7,.94-1.41,1.87-2.15,2.78-3.86-2.25-7.38-4.94-10.15-8.18-2.97-3.4-5.17-7.34-6.51-11.53-1.38-4.19-1.92-8.61-1.84-13.05,.11-4.44,.77-8.92,2.2-13.27-2.03,4.18-3.34,8.62-4.09,13.15-.72,4.53-.83,9.18,.02,13.81,.81,4.62,2.59,9.22,5.42,13.42,2.66,4.04,6.35,7.62,10.53,10.68-1.79,1.89-3.67,3.71-5.62,5.46l-3.81,3.22-4.08,2.99c-.69,.49-1.32,1.02-2.06,1.46l-2.17,1.37-2.16,1.37c-.72,.46-1.42,.92-2.2,1.32-3.07,1.67-5.95,3.31-9.36,5.02-3.31,1.7-6.67,3.44-10.05,5.25-3.38,1.83-6.77,3.74-10.15,5.78-3.37,2.08-6.72,4.29-9.99,6.73-3.25,2.47-6.42,5.15-9.38,8.11-2.93,3-5.63,6.28-7.99,9.8l25.74,10.02c1.01-2.3,2.29-4.59,3.86-6.86,1.62-2.25,3.52-4.49,5.64-6.69,2.15-2.19,4.54-4.34,7.07-6.47,2.56-2.12,5.27-4.21,8.07-6.29,2.83-2.08,5.74-4.16,8.7-6.26,2.93-2.03,6.09-4.45,9.15-6.76,.78-.56,1.5-1.2,2.23-1.82l2.17-1.87,2.16-1.87c.73-.61,1.37-1.32,2.05-1.97,1.34-1.33,2.69-2.65,4-3.99l3.66-4.22c4.68-5.72,8.64-11.8,11.66-18.12,.75-1.6,1.45-3.22,2.1-4.84,1.1-.93,2.3-1.82,3.58-2.64,4.19-2.73,9.04-4.86,14.2-6.74,5.15-1.89,10.55-3.56,15.94-5.46,2.69-.95,5.38-1.97,8.02-3.1,2.64-1.15,5.2-2.41,7.66-3.79,9.82-5.55,18.02-12.98,23.46-21.65,2.7-4.35,4.51-8.99,5.86-13.67,1.36-4.68,2.3-9.41,3.34-14.13-1.4,4.65-2.7,9.32-4.41,13.88Z"/>
                </g>
                <path class="cls-13" d="M46.93,223.28c-.91,9.76-11.49,17.03-23.63,16.25-12.14-.78-21.25-9.33-20.34-19.09s11.49-25.34,23.63-24.56c12.14,.78,21.25,17.64,20.34,27.4Z"/>
                <path class="cls-12" d="M178.72,286.77c-1.26,13.54-15.94,23.63-32.79,22.55-16.85-1.09-29.48-12.94-28.22-26.48,1.26-13.54,15.94-35.16,32.79-34.08,16.85,1.09,29.48,24.48,28.22,38.02Z"/>
                <path class="cls-12" d="M21.98,236.18c-.91,9.76-11.49,17.03-23.63,16.25s-21.25-9.33-20.34-19.09,11.49-25.34,23.63-24.56c12.14,.78,21.25,17.64,20.34,27.4Z"/>
                <path class="cls-6" d="M145.27,282.82c-.61,6.59-7.76,11.51-15.97,10.98-8.2-.53-14.36-6.3-13.74-12.9,.61-6.59,7.76-17.13,15.97-16.6,8.2,.53,14.36,11.92,13.74,18.51Z"/>
                <path class="cls-24" d="M87.63,247.25c-.08-.7-.16-1.39-.24-2.09-6.94,.34-13.85,.14-20.66-.58,6.66-1.03,13.21-2.55,19.55-4.54-.27-.66-.54-1.33-.81-1.99-5.27,1.32-10.62,2.31-16.01,2.97,4.72-2.07,9.28-4.4,13.61-7-.47-.58-.94-1.16-1.41-1.75-3.44,1.78-6.99,3.39-10.61,4.84,3.19-3.97,6.03-8.14,8.47-12.46-.75-.32-1.5-.64-2.25-.96-3.88,5.81-8.47,11.2-13.66,16.12-.07,.02-.15,.05-.22,.07,3.72-5.39,6.81-11.06,9.21-16.94-.79-.25-1.58-.49-2.36-.74-2.29,4.57-5,8.95-8.09,13.11,1.39-4.6,2.36-9.28,2.91-14.01-.83-.09-1.67-.18-2.51-.27-1.45,7.26-3.91,14.29-7.3,20.96-.14,0-.27,0-.41,0,1.3-5.76,3.25-11.44,5.87-16.96-.77-.28-1.54-.56-2.32-.84-2.39,4.19-4.41,8.52-6.05,12.95-.86-4.75-2.14-9.45-3.85-14.04-.81,.18-1.62,.37-2.44,.55,1.6,5.63,2.55,11.33,2.87,17.03-2.37-5.28-5.29-10.38-8.74-15.24-.74,.34-1.48,.67-2.22,1.01,2.47,4.09,4.57,8.31,6.28,12.61-3.26-3.52-6.81-6.84-10.63-9.95-.61,.48-1.22,.97-1.83,1.45,4.68,4.35,8.57,9.02,12.29,13.95,2.3,2.43,4.51,5.96,4.04,9.11-.2,1.33-.35,2.66-.48,4-.03,.29-.05,.57-.08,.86,.12-.08,.23-.15,.35-.23,.4-.27,.81-.55,1.21-.83,2.15-1.5,4.19-3.09,6.24-4.68,.67-.52,4.89-4.68,5.32-4.56,7.83,2.2,15.4,5.12,22.55,8.76,.46-.58,.93-1.17,1.39-1.75-4.55-2.68-9.33-5.08-14.29-7.18,5.77,.11,11.55-.13,17.29-.74Z"/>
              </g>
              <g>
                <path class="cls-14" d="M645.63,296.31c10.31-17.42,24.66-32.39,43.14-44.05,74.59-47.06,193.37-26.1,293.6,44.05h-336.74Z"/>
                <path class="cls-17" d="M540.23,296.31c14.18-8.91,29.73-16.06,46.7-21.03,55.71-16.33,117.11-7.3,174.95,21.03h-221.65Z"/>
                <path class="cls-14" d="M-151.56,296.31c56.78-54.04,130.03-80.23,194.43-62.24,35.75,9.98,63.78,32.22,82.73,62.24H-151.56Z"/>
                <path class="cls-17" d="M21.99,296.31c49.26-28.54,102.03-37.12,142.22-18.31,10.09,4.72,18.79,10.92,26.15,18.31H21.99Z"/>
                <path class="cls-17" d="M349.17,296.31c-36.34-13.37-74.27-14.14-103.64,0h103.64Z"/>
              </g>
            </g>
          </g>
        </g>
      </g>
    </g>
  </g>
</svg>